<svg width="24" height="24" viewBox="0 0 24 24" fill="none" xmlns="http://www.w3.org/2000/svg">
<path d="M11.7526 12.7526L15.0026 9.5026C15.1554 9.34983 15.3498 9.27344 15.5859 9.27344C15.822 9.27344 16.0165 9.34983 16.1693 9.5026C16.322 9.65538 16.3984 9.84983 16.3984 10.0859C16.3984 10.322 16.322 10.5165 16.1693 10.6693L12.3359 14.5026C12.2526 14.5859 12.1623 14.645 12.0651 14.6797C11.9679 14.7144 11.8637 14.7318 11.7526 14.7318C11.6415 14.7318 11.5373 14.7144 11.4401 14.6797C11.3429 14.645 11.2526 14.5859 11.1693 14.5026L7.33594 10.6693C7.18316 10.5165 7.10677 10.322 7.10677 10.0859C7.10677 9.84983 7.18316 9.65538 7.33594 9.5026C7.48872 9.34983 7.68316 9.27344 7.91927 9.27344C8.15538 9.27344 8.34983 9.34983 8.5026 9.5026L11.7526 12.7526Z" fill="white"/>
</svg>
