<svg width="24" height="24" viewBox="0 0 24 24" fill="none" xmlns="http://www.w3.org/2000/svg">
<path fill-rule="evenodd" clip-rule="evenodd" d="M7.96788 11.1667H16.0321C16.4714 11.1667 16.8504 11.1666 17.1625 11.1921C17.492 11.2191 17.8197 11.2785 18.135 11.4392C18.6054 11.6788 18.9878 12.0613 19.2275 12.5317C19.3882 12.847 19.4476 13.1747 19.4745 13.5041C19.5 13.8163 19.5 14.1952 19.5 14.6345V16.0321C19.5 16.4714 19.5 16.8504 19.4745 17.1625C19.4476 17.492 19.3882 17.8197 19.2275 18.135C18.9878 18.6054 18.6054 18.9878 18.135 19.2275C17.8197 19.3882 17.492 19.4476 17.1625 19.4745C16.8504 19.5 16.4714 19.5 16.0321 19.5H7.9679C7.5286 19.5 7.14963 19.5 6.83748 19.4745C6.50802 19.4476 6.18034 19.3882 5.86503 19.2275C5.39462 18.9878 5.01217 18.6054 4.77249 18.135C4.61182 17.8197 4.55239 17.492 4.52548 17.1625C4.49997 16.8504 4.49999 16.4714 4.5 16.0321V14.6345C4.49999 14.1953 4.49997 13.8163 4.52548 13.5041C4.55239 13.1747 4.61182 12.847 4.77249 12.5317C5.01217 12.0613 5.39462 11.6788 5.86503 11.4392C6.18034 11.2785 6.50802 11.2191 6.83748 11.1921C7.14962 11.1666 7.52859 11.1667 7.96788 11.1667ZM6.9732 12.8533C6.74681 12.8718 6.66288 12.9032 6.62168 12.9242C6.46487 13.0041 6.33739 13.1315 6.2575 13.2883C6.2365 13.3295 6.2051 13.4135 6.18661 13.6399C6.16732 13.876 6.16667 14.1862 6.16667 14.6667V16C6.16667 16.4805 6.16732 16.7907 6.18661 17.0268C6.2051 17.2532 6.2365 17.3371 6.2575 17.3783C6.33739 17.5351 6.46487 17.6626 6.62168 17.7425C6.66288 17.7635 6.74681 17.7949 6.9732 17.8134C7.20931 17.8327 7.51954 17.8333 8 17.8333H16C16.4805 17.8333 16.7907 17.8327 17.0268 17.8134C17.2532 17.7949 17.3371 17.7635 17.3783 17.7425C17.5351 17.6626 17.6626 17.5351 17.7425 17.3783C17.7635 17.3371 17.7949 17.2532 17.8134 17.0268C17.8327 16.7907 17.8333 16.4805 17.8333 16V14.6667C17.8333 14.1862 17.8327 13.876 17.8134 13.6399C17.7949 13.4135 17.7635 13.3295 17.7425 13.2883C17.6626 13.1315 17.5351 13.0041 17.3783 12.9242C17.3371 12.9032 17.2532 12.8718 17.0268 12.8533C16.7907 12.834 16.4805 12.8333 16 12.8333H8C7.51954 12.8333 7.20931 12.834 6.9732 12.8533Z" fill="#95969C"/>
<path d="M6.16667 8.66667C6.16667 8.20643 6.53976 7.83333 7 7.83333H17C17.4602 7.83333 17.8333 8.20643 17.8333 8.66667C17.8333 9.1269 17.4602 9.5 17 9.5H7C6.53976 9.5 6.16667 9.1269 6.16667 8.66667Z" fill="#95969C"/>
<path d="M7.83334 5.33333C7.83334 4.8731 8.20643 4.5 8.66667 4.5H15.3333C15.7936 4.5 16.1667 4.8731 16.1667 5.33333C16.1667 5.79357 15.7936 6.16667 15.3333 6.16667H8.66667C8.20643 6.16667 7.83334 5.79357 7.83334 5.33333Z" fill="#95969C"/>
</svg>
