<svg width="40" height="40" viewBox="0 0 40 40" fill="none" xmlns="http://www.w3.org/2000/svg">
<path d="M0 20C0 8.95431 8.95431 0 20 0C31.0457 0 40 8.95431 40 20C40 31.0457 31.0457 40 20 40C8.95431 40 0 31.0457 0 20Z" fill="white" fill-opacity="0.06"/>
<path d="M18.0015 28H22.0015C22.0015 29.1046 21.106 30 20.0015 30C18.8969 30 18.0015 29.1046 18.0015 28Z" fill="white"/>
<path fill-rule="evenodd" clip-rule="evenodd" d="M20.0015 10C19.4492 10 19.0015 10.4477 19.0015 11V12C19.0015 12.0277 19.0026 12.0552 19.0048 12.0824C16.1655 12.5571 14.0015 15.0258 14.0015 18V19.9574C14.0015 20.3881 13.8456 20.8042 13.5626 21.1289L12.9181 21.8682C10.8313 24.2623 12.5317 28 15.7076 28H24.2955C27.4713 28 29.1717 24.2623 27.0849 21.8682L26.4404 21.1289C26.1574 20.8042 26.0015 20.3881 26.0015 19.9574V18C26.0015 15.0258 23.8375 12.5571 20.9981 12.0824C21.0003 12.0552 21.0015 12.0277 21.0015 12V11C21.0015 10.4477 20.5537 10 20.0015 10ZM16.0015 18C16.0015 15.7909 17.7924 14 20.0015 14C22.2106 14 24.0015 15.7909 24.0015 18V19.9574C24.0015 20.8712 24.3323 21.7542 24.9328 22.443L25.5772 23.1824C26.5361 24.2825 25.7548 26 24.2955 26H15.7076C14.2482 26 13.4669 24.2825 14.4258 23.1824L15.0702 22.443C15.6707 21.7542 16.0015 20.8712 16.0015 19.9574V18Z" fill="white"/>
</svg>
