<svg width="24" height="24" viewBox="0 0 24 24" fill="none" xmlns="http://www.w3.org/2000/svg">
<path fill-rule="evenodd" clip-rule="evenodd" d="M12.3053 5.38868C12.1091 5.31141 11.8909 5.31141 11.6946 5.38868L6.69467 7.35757C6.37609 7.48302 6.16667 7.79057 6.16667 8.13296V11.1666C6.16667 13.9355 7.69228 16.4792 10.135 17.7831L11.6076 18.5691C11.8528 18.7 12.1472 18.7 12.3924 18.5691L13.865 17.7831C16.3077 16.4792 17.8333 13.9356 17.8333 11.1666V8.13296C17.8333 7.79057 17.6239 7.48302 17.3053 7.35757L12.3053 5.38868ZM11.084 3.83792C11.6726 3.60611 12.3273 3.60611 12.916 3.83792L17.9159 5.80681C18.8717 6.18316 19.5 7.10579 19.5 8.13296V11.1666C19.5 14.5509 17.6353 17.6598 14.6498 19.2534L13.1772 20.0394C12.4415 20.4321 11.5585 20.4321 10.8228 20.0394L9.35019 19.2534C6.36464 17.6598 4.5 14.5509 4.5 11.1666V8.13296C4.5 7.10579 5.12828 6.18316 6.08401 5.80681L11.084 3.83792Z" fill="#95969C"/>
</svg>
