<svg width="24" height="24" viewBox="0 0 24 24" fill="none" xmlns="http://www.w3.org/2000/svg">
<path fill-rule="evenodd" clip-rule="evenodd" d="M9.5026 15.3346C8.12189 15.3346 7.0026 16.4539 7.0026 17.8346C7.0026 18.2949 7.3757 18.668 7.83594 18.668H12.8359C13.2962 18.668 13.6693 19.0411 13.6693 19.5013C13.6693 19.9615 13.2962 20.3346 12.8359 20.3346H7.83594C6.45523 20.3346 5.33594 19.2153 5.33594 17.8346C5.33594 15.5334 7.20142 13.668 9.5026 13.668H14.5026C14.9628 13.668 15.3359 14.0411 15.3359 14.5013C15.3359 14.9615 14.9628 15.3346 14.5026 15.3346H9.5026Z" fill="#95969C"/>
<path fill-rule="evenodd" clip-rule="evenodd" d="M12.0026 5.33464C10.6219 5.33464 9.5026 6.45392 9.5026 7.83464C9.5026 9.21535 10.6219 10.3346 12.0026 10.3346C13.3833 10.3346 14.5026 9.21535 14.5026 7.83464C14.5026 6.45392 13.3833 5.33464 12.0026 5.33464ZM7.83594 7.83464C7.83594 5.53345 9.70142 3.66797 12.0026 3.66797C14.3038 3.66797 16.1693 5.53345 16.1693 7.83464C16.1693 10.1358 14.3038 12.0013 12.0026 12.0013C9.70142 12.0013 7.83594 10.1358 7.83594 7.83464Z" fill="#95969C"/>
<path d="M17.4524 14.7567C17.5948 14.4144 18.0795 14.4144 18.2219 14.7567L18.8797 16.3383C18.9393 16.4816 19.0737 16.5799 19.2284 16.5934L20.7905 16.7288C21.1482 16.7598 21.3018 17.1985 21.0416 17.4459L19.8549 18.5738C19.7473 18.6761 19.7022 18.828 19.7367 18.9725L20.1371 20.6511C20.2231 21.0116 19.8309 21.2965 19.5146 21.1033L18.0543 20.2114C17.921 20.13 17.7533 20.13 17.6199 20.2114L16.1597 21.1033C15.8434 21.2965 15.4512 21.0116 15.5372 20.6511L15.9377 18.972C15.9721 18.8278 15.9273 18.6762 15.8201 18.5739L14.6374 17.4453C14.378 17.1978 14.5317 16.7598 14.889 16.7288L16.4459 16.5934C16.6006 16.58 16.735 16.4817 16.7946 16.3383L17.4524 14.7567Z" fill="#95969C"/>
</svg>
