<svg width="24" height="24" viewBox="0 0 24 24" fill="none" xmlns="http://www.w3.org/2000/svg">
<path fill-rule="evenodd" clip-rule="evenodd" d="M11.4029 3.7786C11.7873 3.63109 12.2127 3.63109 12.5971 3.7786L18.4304 6.01704C19.0747 6.26427 19.5 6.88299 19.5 7.57308V11.0907C19.5 14.5202 17.5856 17.6628 14.5383 19.236L12.7645 20.1517C12.2849 20.3993 11.7151 20.3993 11.2355 20.1517L9.46169 19.236C6.41433 17.6628 4.5 14.5202 4.5 11.0907V7.57308C4.5 6.88299 4.92528 6.26427 5.56956 6.01704L11.4029 3.7786ZM15.0893 10.9239C15.4147 10.5985 15.4147 10.0708 15.0893 9.74538C14.7638 9.41994 14.2362 9.41994 13.9107 9.74538L11.1667 12.4895L10.0893 11.412C9.76382 11.0866 9.23618 11.0866 8.91074 11.412C8.58531 11.7375 8.58531 12.2651 8.91074 12.5906L10.5774 14.2572C10.9028 14.5827 11.4305 14.5827 11.7559 14.2572L15.0893 10.9239Z" fill="white"/>
</svg>
