<svg width="24" height="24" viewBox="0 0 24 24" fill="none" xmlns="http://www.w3.org/2000/svg">
<path fill-rule="evenodd" clip-rule="evenodd" d="M14.2452 3.76012C13.8596 3.66755 13.4598 3.66774 12.9307 3.66799L10.1349 3.66802C9.46405 3.66801 8.91041 3.668 8.45942 3.70485C7.991 3.74312 7.56042 3.82526 7.15597 4.03133C6.52876 4.35091 6.01883 4.86085 5.69925 5.48805C5.49317 5.8925 5.41104 6.32309 5.37277 6.7915C5.33592 7.24249 5.33593 7.79612 5.33594 8.46693V15.5358C5.33593 16.2066 5.33592 16.7602 5.37277 17.2112C5.41104 17.6796 5.49317 18.1102 5.69925 18.5147C6.01883 19.1419 6.52876 19.6518 7.15597 19.9714C7.56042 20.1775 7.991 20.2596 8.45942 20.2979C8.91041 20.3347 9.46404 20.3347 10.1348 20.3347H13.8704C14.5412 20.3347 15.0948 20.3347 15.5458 20.2979C16.0142 20.2596 16.4448 20.1775 16.8492 19.9714C17.4764 19.6518 17.9864 19.1419 18.306 18.5147C18.512 18.1102 18.5942 17.6796 18.6324 17.2112C18.6693 16.7602 18.6693 16.2066 18.6693 15.5358L18.6693 9.40664C18.6695 8.87748 18.6697 8.47764 18.5772 8.09207C18.4955 7.75195 18.3608 7.4268 18.1781 7.12856C17.9709 6.79046 17.688 6.50787 17.3137 6.13388L16.2034 5.02362C15.8294 4.64927 15.5468 4.36641 15.2087 4.15922C14.9105 3.97646 14.5853 3.84178 14.2452 3.76012ZM12.8359 5.33469H10.1693C9.45546 5.33469 8.97021 5.33534 8.59514 5.36598C8.22979 5.39583 8.04295 5.44994 7.91262 5.51634C7.59902 5.67613 7.34405 5.9311 7.18426 6.2447C7.11785 6.37504 7.06375 6.56187 7.0339 6.92722C7.00325 7.30229 7.00261 7.78754 7.00261 8.50135V15.5014C7.00261 16.2152 7.00325 16.7004 7.0339 17.0755C7.06375 17.4408 7.11785 17.6277 7.18426 17.758C7.34405 18.0716 7.59902 18.3266 7.91262 18.4864C8.04295 18.5528 8.22979 18.6069 8.59514 18.6367C8.97021 18.6674 9.45546 18.668 10.1693 18.668H13.8359C14.5498 18.668 15.035 18.6674 15.4101 18.6367C15.7754 18.6069 15.9623 18.5528 16.0926 18.4864C16.4062 18.3266 16.6612 18.0716 16.8209 17.758C16.8874 17.6277 16.9415 17.4408 16.9713 17.0755C17.002 16.7004 17.0026 16.2152 17.0026 15.5014V9.50135H15.3359C13.9552 9.50135 12.8359 8.38207 12.8359 7.00135V5.33469ZM16.6359 7.83469C16.5358 7.71627 16.3758 7.5531 16.0751 7.25237L15.0849 6.26218C14.7842 5.96145 14.621 5.80152 14.5026 5.70137V7.00135C14.5026 7.46159 14.8757 7.83469 15.3359 7.83469H16.6359Z" fill="#95969C"/>
<path d="M9.4974 12C9.03716 12 8.66406 12.3731 8.66406 12.8333C8.66406 13.2936 9.03716 13.6667 9.4974 13.6667H14.4974C14.9576 13.6667 15.3307 13.2936 15.3307 12.8333C15.3307 12.3731 14.9576 12 14.4974 12H9.4974Z" fill="#95969C"/>
<path d="M9.4974 15.3333C9.03716 15.3333 8.66406 15.7064 8.66406 16.1667C8.66406 16.6269 9.03716 17 9.4974 17H11.9974C12.4576 17 12.8307 16.6269 12.8307 16.1667C12.8307 15.7064 12.4576 15.3333 11.9974 15.3333H9.4974Z" fill="#95969C"/>
</svg>
