<svg width="32" height="32" viewBox="0 0 32 32" fill="none" xmlns="http://www.w3.org/2000/svg">
<rect width="32" height="32" rx="6" fill="white" fill-opacity="0.16"/>
<path d="M10.3333 22.6654C9.68519 22.6654 9.13426 22.4387 8.68056 21.9854C8.22685 21.532 8 20.9815 8 20.3339V11.6635C8 11.0159 8.22685 10.4654 8.68056 10.012C9.13426 9.5587 9.68519 9.33203 10.3333 9.33203H13.3333L16 11.9967H21.6667C22.3148 11.9967 22.8657 12.2233 23.3194 12.6767C23.7731 13.13 24 13.6805 24 14.3281V20.3339C24 20.9815 23.7731 21.532 23.3194 21.9854C22.8657 22.4387 22.3148 22.6654 21.6667 22.6654H10.3333Z" fill="white"/>
</svg>
