<svg width="24" height="24" viewBox="0 0 24 24" fill="none" xmlns="http://www.w3.org/2000/svg">
<path d="M7.83073 8.66536C7.83073 8.20513 7.45763 7.83203 6.9974 7.83203C6.53716 7.83203 6.16406 8.20513 6.16406 8.66536V10.332C6.16406 11.7127 7.28335 12.832 8.66406 12.832H11.1641V15.332C11.1641 15.7923 11.5372 16.1654 11.9974 16.1654C12.4576 16.1654 12.8307 15.7923 12.8307 15.332V12.832H15.3307C16.7114 12.832 17.8307 11.7127 17.8307 10.332V8.66536C17.8307 8.20513 17.4576 7.83203 16.9974 7.83203C16.5372 7.83203 16.1641 8.20513 16.1641 8.66536V10.332C16.1641 10.7923 15.791 11.1654 15.3307 11.1654H8.66406C8.20383 11.1654 7.83073 10.7923 7.83073 10.332V8.66536Z" fill="#95969C"/>
<path fill-rule="evenodd" clip-rule="evenodd" d="M4.5 7C4.5 5.61929 5.61929 4.5 7 4.5C8.38071 4.5 9.5 5.61929 9.5 7C9.5 8.38071 8.38071 9.5 7 9.5C5.61929 9.5 4.5 8.38071 4.5 7ZM7 6.16667C6.53976 6.16667 6.16667 6.53976 6.16667 7C6.16667 7.46024 6.53976 7.83333 7 7.83333C7.46024 7.83333 7.83333 7.46024 7.83333 7C7.83333 6.53976 7.46024 6.16667 7 6.16667Z" fill="#95969C"/>
<path fill-rule="evenodd" clip-rule="evenodd" d="M9.5 17C9.5 15.6193 10.6193 14.5 12 14.5C13.3807 14.5 14.5 15.6193 14.5 17C14.5 18.3807 13.3807 19.5 12 19.5C10.6193 19.5 9.5 18.3807 9.5 17ZM12 16.1667C11.5398 16.1667 11.1667 16.5398 11.1667 17C11.1667 17.4602 11.5398 17.8333 12 17.8333C12.4602 17.8333 12.8333 17.4602 12.8333 17C12.8333 16.5398 12.4602 16.1667 12 16.1667Z" fill="#95969C"/>
<path fill-rule="evenodd" clip-rule="evenodd" d="M17 4.5C15.6193 4.5 14.5 5.61929 14.5 7C14.5 8.38071 15.6193 9.5 17 9.5C18.3807 9.5 19.5 8.38071 19.5 7C19.5 5.61929 18.3807 4.5 17 4.5ZM16.1667 7C16.1667 6.53976 16.5398 6.16667 17 6.16667C17.4602 6.16667 17.8333 6.53976 17.8333 7C17.8333 7.46024 17.4602 7.83333 17 7.83333C16.5398 7.83333 16.1667 7.46024 16.1667 7Z" fill="#95969C"/>
</svg>
