<svg width="40" height="40" viewBox="0 0 40 40" fill="none" xmlns="http://www.w3.org/2000/svg">
<g clip-path="url(#clip0_40013415_7373)">
<path d="M30 0H10C4.47715 0 0 4.47715 0 10V30C0 35.5228 4.47715 40 10 40H30C35.5228 40 40 35.5228 40 30V10C40 4.47715 35.5228 0 30 0Z" fill="white"/>
<g filter="url(#filter0_i_40013415_7373)">
<path fill-rule="evenodd" clip-rule="evenodd" d="M21.5545 29.4288C19.7447 29.4288 17.9678 28.7828 16.9478 27.3938L16.588 29.0318L9.94531 32.4961L10.6624 29.0318L15.5 7.49609H21.4229L19.7118 15.0869C21.0938 13.6011 22.3771 13.0519 24.0224 13.0519C27.5761 13.0519 29.9453 15.3453 29.9453 19.5445C29.9453 23.8729 27.2143 29.4288 21.5545 29.4288ZM23.825 20.772C23.825 22.7747 22.3771 24.2929 20.5015 24.2929C19.4486 24.2929 18.4943 23.9052 17.8691 23.2269L18.7905 19.2538C19.4815 18.5755 20.2712 18.1879 21.1925 18.1879C22.6075 18.1879 23.825 19.2215 23.825 20.772Z" fill="#121019"/>
</g>
</g>
<defs>
<filter id="filter0_i_40013415_7373" x="9.94531" y="7.49609" width="20" height="25" filterUnits="userSpaceOnUse" color-interpolation-filters="sRGB">
<feFlood flood-opacity="0" result="BackgroundImageFix"/>
<feBlend mode="normal" in="SourceGraphic" in2="BackgroundImageFix" result="shape"/>
<feColorMatrix in="SourceAlpha" type="matrix" values="0 0 0 0 0 0 0 0 0 0 0 0 0 0 0 0 0 0 127 0" result="hardAlpha"/>
<feOffset/>
<feGaussianBlur stdDeviation="0.0481032"/>
<feComposite in2="hardAlpha" operator="arithmetic" k2="-1" k3="1"/>
<feColorMatrix type="matrix" values="0 0 0 0 1 0 0 0 0 1 0 0 0 0 1 0 0 0 0.95 0"/>
<feBlend mode="normal" in2="shape" result="effect1_innerShadow_40013415_7373"/>
</filter>
<clipPath id="clip0_40013415_7373">
<rect width="40" height="40" fill="white"/>
</clipPath>
</defs>
</svg>
