<svg width="40" height="40" viewBox="0 0 40 40" fill="none" xmlns="http://www.w3.org/2000/svg">
<path d="M32.1298 35.7794C32.183 35.7794 32.2056 35.8459 32.1644 35.8792C28.6764 38.5595 24.3989 40.0092 20 40.0018C15.4252 40.0018 11.2069 38.4644 7.83696 35.8792C7.79441 35.8472 7.81835 35.7794 7.87154 35.7794H32.1298ZM37.3469 29.9639C36.651 31.1742 35.83 32.3082 34.8973 33.3471C34.8798 33.3664 34.8584 33.3818 34.8346 33.3923C34.8108 33.4029 34.785 33.4083 34.759 33.4083H5.24238C5.21633 33.4083 5.19056 33.4029 5.16673 33.3923C5.14291 33.3818 5.12156 33.3664 5.10407 33.3471C4.17138 32.3082 3.35034 31.1742 2.65444 29.9639C2.6482 29.9525 2.64502 29.9398 2.64522 29.9268C2.64541 29.9139 2.64898 29.9013 2.65555 29.8901C2.66213 29.879 2.67149 29.8697 2.68273 29.8633C2.69396 29.8569 2.70667 29.8535 2.7196 29.8535H37.2831C37.3403 29.8535 37.3762 29.9147 37.3469 29.9639ZM39.605 23.9794C39.3695 25.144 39.0303 26.2851 38.5917 27.3892C38.5809 27.4168 38.5621 27.4404 38.5376 27.457C38.5132 27.4737 38.4843 27.4825 38.4547 27.4823H1.54665C1.51686 27.4827 1.48766 27.4741 1.46294 27.4574C1.43822 27.4408 1.41918 27.417 1.40835 27.3892C0.969688 26.2851 0.630552 25.144 0.39498 23.9794C0.392813 23.9686 0.393076 23.9575 0.39575 23.9468C0.398424 23.9361 0.403441 23.9261 0.41044 23.9176C0.417439 23.909 0.426244 23.9022 0.43622 23.8975C0.446196 23.8928 0.457093 23.8903 0.468123 23.8903H39.5332C39.5798 23.8903 39.6143 23.9329 39.605 23.9794ZM19.8657 0.000459654C30.9728 -0.0740134 40 8.91062 40 20.0018C40 20.4894 39.9832 20.9726 39.9495 21.4513C39.9478 21.4699 39.9392 21.4872 39.9254 21.4998C39.9116 21.5123 39.8936 21.5192 39.875 21.5192H0.125016C0.106382 21.5189 0.0885333 21.5116 0.074992 21.4988C0.0614507 21.486 0.0532013 21.4686 0.0518724 21.45C0.0174968 20.9743 0.000197342 20.4974 7.22109e-06 20.0204C-0.00930191 9.1367 8.98332 0.0736028 19.8657 0.000459654Z" fill="#FF631F"/>
</svg>
