<svg width="40" height="40" viewBox="0 0 40 40" fill="none" xmlns="http://www.w3.org/2000/svg">
<g clip-path="url(#clip0_40013415_7365)">
<path d="M40 0H0V40H40V0Z" fill="#A7F175"/>
<path d="M18.8161 27.6639C17.0806 27.6639 15.9766 26.6111 15.9766 25.2758C15.9766 19.5613 31.004 18.4173 31.004 12.3486C31.004 8.64645 26.7155 7.05078 21.2411 7.05078C17.9111 7.05078 14.146 7.66711 10.6491 8.76995V16.0096C15.8023 12.2563 21.5278 10.6496 25.2158 10.6496C27.5348 10.6496 29.1083 11.2966 29.1083 12.4559C29.1083 17.2323 8.38281 16.4754 8.38281 26.7963C8.38281 30.7523 11.103 33.0188 14.93 33.0188C20.7186 33.0188 25.0971 27.3933 28.3728 20.5359L29.0365 20.7743C27.3113 24.9648 23.7413 29.5596 23.046 32.5133H30.4985V17.2324H28.7773C26.279 22.6614 22.6178 27.6639 18.8161 27.6639Z" fill="black"/>
</g>
<defs>
<clipPath id="clip0_40013415_7365">
<rect width="40" height="40" rx="8" fill="white"/>
</clipPath>
</defs>
</svg>
