<svg width="40" height="40" viewBox="0 0 40 40" fill="none" xmlns="http://www.w3.org/2000/svg">
<path d="M38.3293 0H19.0547C19.0547 4.79223 22.9541 8.69289 27.7449 8.69289H31.3101V12.092C31.3101 16.8842 35.2097 20.785 40.0005 20.785V1.67171C40.0005 0.724413 39.2764 0 38.3293 0Z" fill="#2684FF"/>
<path d="M28.7903 9.57422H9.51562C9.51562 14.3664 13.4151 18.2671 18.206 18.2671H21.7712V21.722C21.7712 26.5141 25.6708 30.4149 30.4616 30.4149V11.2459C30.4616 10.3543 29.7373 9.57422 28.7903 9.57422Z" fill="url(#paint0_linear_40013415_7369)"/>
<path d="M19.2747 19.2148H0C0 24.007 3.8995 27.9076 8.69032 27.9076H12.2556V31.3068C12.2556 36.099 16.155 39.9996 20.9458 39.9996V20.8864C20.9458 19.9392 20.1661 19.2148 19.2747 19.2148Z" fill="url(#paint1_linear_40013415_7369)"/>
<defs>
<linearGradient id="paint0_linear_40013415_7369" x1="30.0515" y1="9.62231" x2="21.8542" y2="18.0733" gradientUnits="userSpaceOnUse">
<stop offset="0.176" stop-color="#0052CC"/>
<stop offset="1" stop-color="#2684FF"/>
</linearGradient>
<linearGradient id="paint1_linear_40013415_7369" x1="21.0716" y1="19.2789" x2="11.5937" y2="28.4978" gradientUnits="userSpaceOnUse">
<stop offset="0.176" stop-color="#0052CC"/>
<stop offset="1" stop-color="#2684FF"/>
</linearGradient>
</defs>
</svg>
