<svg width="40" height="40" viewBox="0 0 40 40" fill="none" xmlns="http://www.w3.org/2000/svg">
<rect width="40" height="40" rx="20" fill="#FDDD4C"/>
<path d="M32.5116 24.073C32.3828 24.0379 32.3769 23.9501 32.3477 23.8623C32.2306 23.511 32.1252 23.1597 32.0022 22.8143C31.9613 22.6972 31.9788 22.6153 32.0374 22.5158C32.2189 22.1996 32.3535 21.8659 32.3828 21.503C32.4647 20.5077 31.973 19.6881 30.9895 19.1788C30.4099 18.8744 29.7893 18.6695 29.1571 18.5173C28.9931 18.4763 28.9287 18.4119 28.9229 18.2246C28.917 17.6333 28.8995 17.0361 28.8702 16.4448C28.8116 15.192 28.5131 14.0153 27.6876 13.0376C27.5237 12.8444 27.5178 12.7391 27.6935 12.5517C28.5892 11.5741 29.3385 10.5027 29.6605 9.1855C30.082 7.46434 29.28 6.17053 27.553 5.77244C26.7217 5.57925 25.8903 5.61437 25.0532 5.74317C23.9116 5.9188 22.8344 6.31104 21.7865 6.78524C21.6284 6.85549 21.5347 6.83792 21.4118 6.71498C21.043 6.34031 20.6449 5.9949 20.2878 5.60267C19.515 4.75965 18.5549 4.58402 17.4836 4.75379C16.4122 4.92357 15.4463 5.3802 14.5213 5.93051C12.7474 6.98428 11.2077 8.32492 9.79686 9.81777C8.19278 11.5155 6.77603 13.3596 5.72811 15.4613C5.13683 16.6556 4.65678 17.885 4.69776 19.2491C4.72117 20.057 4.99632 20.7478 5.63444 21.2746C5.90374 21.4971 6.16719 21.7313 6.44234 21.9537C6.54186 22.0357 6.5887 22.1001 6.53601 22.2465C6.41307 22.5743 6.35452 22.9197 6.31354 23.271C5.95058 26.2801 8.49135 28.3349 10.6633 28.4754C10.874 28.4872 10.956 28.5633 11.038 28.7447C11.7229 30.2259 12.6947 31.4963 13.9534 32.5266C16.3127 34.4644 19.0584 35.2782 21.8684 35.3016C23.7243 35.2899 25.3342 35.0557 26.8739 34.4527C29.9123 33.2584 32.0608 31.1801 33.1204 28.0539C33.4131 27.1816 33.618 26.2859 33.4892 25.3551C33.4131 24.7521 33.1731 24.2428 32.5116 24.073ZM12.9348 25.9932C12.5015 27.1114 11.4009 27.5739 10.154 27.2343C8.92457 26.9006 7.42586 25.6888 7.42586 23.8388C7.36146 21.9889 8.69039 20.5897 10.5169 20.6307C11.4712 20.6541 12.1971 21.1517 12.6479 21.9655C13.3621 23.2476 13.4617 24.6233 12.9348 25.9932ZM9.70319 19.2373C9.60952 19.4715 9.48658 19.5769 9.24655 19.6413C8.4328 19.8521 7.74785 20.2911 7.22682 20.9527C7.08631 21.1283 7.02777 21.0756 6.87556 20.9761C5.71055 20.215 5.62859 19.132 5.95643 17.9318C6.33111 16.5327 7.01021 15.2798 7.78883 14.0738C9.62708 11.2521 11.9161 8.87522 14.7789 7.08381C15.698 6.51008 16.664 6.03588 17.7529 5.8544C18.4085 5.74317 19.0057 5.80171 19.4799 6.36373C19.7843 6.72669 20.1356 7.05453 20.4927 7.42921C19.0701 8.26052 17.7646 9.16209 16.4883 10.128C13.3329 12.5107 11.1316 15.5843 9.70319 19.2373ZM19.3921 10.1515C19.2691 10.4676 19.1755 10.7018 19.0818 10.9359C19.0584 11.0003 19.0115 11.0706 19.0701 11.1233C19.152 11.2052 19.2106 11.1057 19.2691 11.0706C20.1707 10.5203 21.1308 10.1515 22.1787 10.011C22.2431 9.99925 22.3134 9.9934 22.3836 9.9934C22.407 9.9934 22.4363 10.011 22.489 10.0285C22.3543 10.169 22.2256 10.292 22.1085 10.4266C22.0558 10.4852 21.9445 10.5378 21.9972 10.6432C22.0382 10.7193 22.1377 10.6901 22.2138 10.6959C23.0042 10.7603 23.7652 10.9418 24.4912 11.2696C24.5907 11.3165 24.7078 11.3457 24.7839 11.4862C21.4528 10.8247 18.391 11.4862 15.5575 13.3069C16.6288 12.0424 17.8524 10.9711 19.3921 10.1515ZM31.891 27.9369C30.966 29.7517 29.4966 30.9518 27.6115 31.666C25.4923 32.4622 23.3671 32.5442 21.2772 31.5782C17.3548 29.7634 17.4894 25.0799 19.556 22.8495C19.8838 22.4982 19.8897 22.3753 19.5853 22.0006C19.2399 21.5791 18.8535 21.1927 18.5432 20.7419C17.4894 19.2198 17.6182 17.2937 18.8593 16.0936C19.4916 15.4789 20.2468 15.1862 21.1425 15.2798C21.7455 15.3442 22.3426 15.3911 22.9456 15.4203C23.7711 15.4555 24.4912 15.1745 25.1234 14.6476C25.2874 14.5129 25.4513 14.3724 25.6386 14.267C26.3411 13.8748 27.0729 14.109 27.43 14.8349C27.6701 15.315 27.7286 15.8419 27.7579 16.3687C27.8047 17.1181 27.834 17.8674 27.875 18.6168C27.9042 19.1671 28.033 19.3193 28.5658 19.4891C29.2332 19.6998 29.924 19.8403 30.5387 20.1916C31.3934 20.6775 31.5515 21.4386 30.9543 22.2172C30.8489 22.3577 30.726 22.4865 30.5972 22.6036C29.6137 23.4934 28.4194 23.9852 27.1607 24.3306C25.4981 24.7931 23.8062 24.9336 22.0968 24.6701C20.9259 24.4945 20.2468 25.5073 20.3053 26.4791C20.358 27.3983 20.9083 27.9427 21.6987 28.294C22.6178 28.7038 23.5838 28.8209 24.5848 28.7682C26.3119 28.6745 27.9511 28.2647 29.4439 27.369C29.9649 27.0587 30.445 26.6899 30.8314 26.2215C30.8958 26.1454 30.9953 26.081 30.966 25.9171C29.7483 26.7133 28.4721 27.3163 27.0905 27.6851C25.6035 28.0891 24.1048 28.2237 22.5885 27.849C22.208 27.7554 21.845 27.6149 21.5347 27.3631C21.3006 27.1758 21.1425 26.9475 21.0898 26.6079C21.8099 26.8128 22.5124 26.9592 23.2325 27.0002C24.0872 27.0529 24.9244 26.9826 25.744 26.7133C25.826 26.684 25.9723 26.6782 25.9489 26.5494C25.9255 26.4147 25.7908 26.4791 25.703 26.485C24.2394 26.6138 22.8051 26.5143 21.4001 26.0635C21.1249 25.9757 21.1132 25.9288 21.2889 25.6947C21.4469 25.4839 21.6635 25.4195 21.9094 25.4371C22.3836 25.4722 22.8578 25.5424 23.3379 25.56C25.5918 25.6361 27.7579 25.2731 29.7835 24.2194C30.2167 23.9969 30.6323 23.7452 31.0187 23.4525C31.1534 23.3471 31.2119 23.3529 31.2763 23.5227C31.4227 23.9325 31.5573 24.354 31.6334 24.7814C31.651 24.8926 31.6744 24.9629 31.8208 24.9804C32.2774 25.0156 32.4706 25.2322 32.4764 25.7064C32.4764 26.4908 32.2481 27.2343 31.891 27.9369Z" fill="black"/>
<path d="M11.9989 25.6373C11.4603 25.9827 10.7754 25.5495 10.7285 24.8411C10.7051 24.525 10.7754 24.2264 10.8749 23.9278C11.0505 23.4009 10.8573 22.9443 10.4007 22.7745C9.9265 22.5989 9.46986 22.8272 9.25325 23.3424C9.18886 23.4946 9.13617 23.6527 9.06006 23.799C9.01908 23.8751 8.93712 23.9278 8.8376 23.9044C8.74978 23.881 8.71466 23.8049 8.7088 23.7229C8.63855 23.0965 8.84345 22.5638 9.30594 22.1481C9.75672 21.7442 10.307 21.6681 10.8573 21.9139C11.4193 22.1657 11.7121 22.6282 11.7472 23.1843C11.7413 23.5707 11.6477 23.881 11.5189 24.1737C11.4486 24.3318 11.3784 24.4957 11.3374 24.6655C11.2437 25.0401 11.5013 25.2977 11.8818 25.2392C11.9989 25.2216 12.1511 25.1221 12.2097 25.2977C12.2682 25.4675 12.1219 25.5612 11.9989 25.6373Z" fill="#FEFEFE"/>
<path d="M26.4068 19.1552C26.8634 19.3016 27.1093 19.1201 27.1151 18.6283V18.5405C27.0976 18.037 27.0156 17.5511 26.7697 17.1062C26.6585 16.9072 26.4829 16.7842 26.237 16.8428C25.9911 16.9013 25.8974 17.0886 25.8857 17.3228C25.8623 17.8965 25.9794 18.441 26.2428 18.9562C26.2838 19.0323 26.319 19.1259 26.4068 19.1552Z" fill="black"/>
<path d="M20.6424 19.6653C21.1986 19.4955 21.7547 19.3843 22.3285 19.5833C22.5392 19.6536 22.7441 19.7472 22.949 19.8292C23.0661 19.876 23.2066 19.9697 23.2944 19.8526C23.3881 19.7238 23.271 19.595 23.1832 19.4896C22.7851 19.033 22.2758 18.8105 21.5908 18.8047C21.0698 18.8164 20.5487 19.0096 20.1272 19.4428C20.0511 19.5189 19.9692 19.6126 20.0277 19.7238C20.0921 19.8585 20.2092 19.7882 20.3087 19.7589C20.4141 19.7355 20.5312 19.7004 20.6424 19.6653Z" fill="#010101"/>
<path d="M23.0771 20.3162C22.8488 20.1288 22.5795 20.0586 22.24 20.0586C21.8946 20.0879 21.5199 20.1815 21.2506 20.5035C21.1979 20.5679 21.1277 20.6382 21.1862 20.7377C21.2506 20.8372 21.3384 20.7962 21.4204 20.767C21.9238 20.5679 22.439 20.5269 22.9718 20.603C23.0537 20.6148 23.1415 20.6148 23.1825 20.5386C23.2293 20.4333 23.1415 20.3689 23.0771 20.3162Z" fill="#020202"/>
<path d="M26.8963 19.8447C26.6621 19.8271 26.4806 20.0555 26.4689 20.3657C26.4631 20.6877 26.6153 20.9219 26.8436 20.9336C27.0778 20.9512 27.2768 20.6994 27.2827 20.3833C27.2827 20.1023 27.1129 19.8564 26.8963 19.8447Z" fill="#010101"/>
<path d="M25.408 21.4443C25.6539 21.4619 25.8295 21.3331 25.8412 21.1223C25.8529 20.8413 25.5778 20.5896 25.2441 20.572C24.9807 20.5545 24.8167 20.6716 24.805 20.8823C24.7933 21.1458 25.086 21.4209 25.408 21.4443Z" fill="#020202"/>
<path d="M11.8818 25.2392C11.5013 25.2977 11.2496 25.0343 11.3374 24.6655C11.3784 24.4957 11.4545 24.3376 11.5189 24.1737C11.6477 23.8751 11.7355 23.5707 11.7472 23.1843C11.7121 22.6282 11.4193 22.1657 10.8573 21.9139C10.3012 21.6681 9.75672 21.7442 9.30594 22.1481C8.84345 22.5579 8.63855 23.0965 8.7088 23.7229C8.72051 23.799 8.75564 23.881 8.8376 23.9044C8.93712 23.9278 9.01908 23.8751 9.06006 23.799C9.13617 23.6527 9.18886 23.4946 9.25325 23.3424C9.46986 22.8272 9.9265 22.5989 10.4007 22.7745C10.8573 22.9443 11.0505 23.4068 10.8749 23.9278C10.7754 24.2264 10.7051 24.525 10.7285 24.8411C10.7754 25.5495 11.4603 25.9768 11.9989 25.6373C12.1219 25.5612 12.2682 25.4675 12.2097 25.2977C12.1453 25.1221 11.9989 25.2216 11.8818 25.2392Z" fill="black"/>
</svg>
