<svg width="40" height="40" viewBox="0 0 40 40" fill="none" xmlns="http://www.w3.org/2000/svg">
<path fill-rule="evenodd" clip-rule="evenodd" d="M20 0C31.0451 0.000204737 39.999 8.95385 39.999 19.999C39.9989 31.0437 31.0451 39.9978 20 39.998C8.95476 39.998 0.000100377 31.0438 0 19.999C0 8.95372 8.9547 0 20 0ZM17.3535 6.1084C14.8843 6.12011 12.6586 10.0849 10.7363 17.8945C9.37822 17.8773 8.14002 17.858 6.97266 17.8379C6.90647 17.8367 6.84691 17.8369 6.79395 17.8369C6.54547 17.8369 6.42365 17.8474 6.36328 17.8555C5.70588 17.9719 5.22852 18.5455 5.22852 19.2197C5.2287 19.9071 5.74168 20.4964 6.41016 20.5928L6.42383 20.6064H10.1064C9.76471 22.1689 9.46502 23.7145 9.21484 25.2031L9.10547 25.8584L9.10449 25.8906C9.10716 26.396 9.52035 26.8066 10.0254 26.8066C10.3457 26.8065 10.636 26.6399 10.8018 26.3799L10.8281 26.4004L12.6377 20.6064H21.3584C22.0246 23.1236 22.7157 25.7229 23.6289 28.1621C24.1172 29.4664 25.2603 32.5215 27.1709 32.5371H27.1934C30.1503 32.5366 31.303 27.7596 32.0664 24.5977C32.2302 23.9175 32.3721 23.3301 32.5059 22.8984L32.5586 22.7197L32.5732 22.6553C32.5765 22.6333 32.5781 22.6109 32.5781 22.5879C32.5781 22.3349 32.3731 22.13 32.1201 22.1299C31.9237 22.1299 31.7569 22.2533 31.6914 22.4268L31.6904 22.4258L31.626 22.6035C31.3751 23.2981 31.1431 23.9549 30.9375 24.5371L30.9219 24.5811C29.6421 28.206 29.0575 29.8608 27.9131 29.8613H27.8848L27.8691 29.8633L27.8398 29.8623C26.375 29.8612 24.9958 23.9065 24.4766 21.665C24.3866 21.2768 24.3044 20.92 24.2285 20.6064H33.7012C33.8789 20.6064 34.0465 20.5623 34.1934 20.4854C34.1944 20.485 34.1956 20.4847 34.1963 20.4844C34.2111 20.4767 34.2258 20.4674 34.2402 20.459C34.2562 20.4498 34.2719 20.4407 34.2871 20.4307C34.2947 20.4259 34.3014 20.4202 34.3086 20.415C34.3315 20.3994 34.3543 20.3829 34.376 20.3652C34.3773 20.3642 34.3785 20.3633 34.3799 20.3623C34.6184 20.1667 34.7705 19.8695 34.7705 19.541C34.7703 19.0277 34.4091 18.5996 33.9219 18.502L33.8955 18.4961L33.876 18.4941C33.8242 18.4857 33.7715 18.4813 33.7178 18.4805L33.5781 18.4668C30.2285 18.227 26.7816 18.133 23.5488 18.0684L23.543 18.0439C21.9696 12.1423 20.0036 6.1084 17.3535 6.1084ZM17.2432 8.78027C17.3832 8.78027 17.5093 8.857 17.6201 9.00293C17.8984 9.43464 18.3796 10.4034 19.0908 12.5664C19.5775 14.0461 20.1082 15.8791 20.6699 18.0176C18.5388 17.9846 16.3827 17.9602 14.2949 17.9365L13.2373 17.9248C14.4316 13.2555 15.8891 9.71151 16.9541 8.875C17.0219 8.83167 17.1277 8.78038 17.2432 8.78027Z" fill="#007FD2"/>
</svg>
