<svg width="40" height="40" viewBox="0 0 40 40" fill="none" xmlns="http://www.w3.org/2000/svg">
<path d="M4.32046 24.2359C4.32046 25.7632 4.65569 26.9359 5.09385 27.6453C5.66834 28.5745 6.5252 28.9681 7.39875 28.9681C8.52546 28.9681 9.55619 28.6885 11.5425 25.9413C13.1339 23.7393 15.0089 20.6485 16.2706 18.7109L18.4071 15.4281C19.8913 13.1482 21.6092 10.6138 23.5789 8.89594C25.1869 7.49381 26.9215 6.71484 28.6672 6.71484C31.598 6.71484 34.3898 8.41326 36.5264 11.5987C38.8646 15.0873 39.9997 19.4815 39.9997 24.0161C39.9997 26.7119 39.4683 28.6927 38.5642 30.2576C37.6906 31.771 35.988 33.283 33.124 33.283V28.9681C35.5763 28.9681 36.1883 26.7147 36.1883 24.1358C36.1883 20.4607 35.3315 16.3823 33.4439 13.4682C32.1044 11.4011 30.3684 10.1381 28.4585 10.1381C26.3929 10.1381 24.7306 11.696 22.8625 14.4739C21.8694 15.9497 20.8498 17.7483 19.705 19.7778L18.4447 22.0103C15.9131 26.4991 15.2718 27.5215 14.006 29.2088C11.7874 32.1633 9.89282 33.283 7.39875 33.283C4.44008 33.283 2.56918 32.0019 1.41048 30.0712C0.464595 28.498 0 26.4337 0 24.0815L4.32046 24.2359Z" fill="#0081FB"/>
<path d="M3.39062 11.9033C5.37141 8.85003 8.22993 6.71484 11.5085 6.71484C13.4072 6.71484 15.2948 7.27681 17.2659 8.8862C19.4219 10.6458 21.7199 13.5433 24.5867 18.3186L25.6147 20.0323C28.0962 24.1664 29.5081 26.2932 30.3344 27.2961C31.3971 28.5842 32.1413 28.9681 33.108 28.9681C35.5604 28.9681 36.1724 26.7147 36.1724 24.1358L39.9838 24.0161C39.9838 26.7119 39.4524 28.6927 38.5482 30.2576C37.6747 31.771 35.9721 33.283 33.108 33.283C31.3275 33.283 29.7501 32.8963 28.0058 31.2508C26.6649 29.9877 25.0972 27.744 23.8912 25.7271L20.3038 19.7346C18.5039 16.7273 16.8528 14.485 15.8971 13.4696C14.8692 12.3776 13.5477 11.0589 11.439 11.0589C9.73221 11.0589 8.28278 12.2566 7.06983 14.0886L3.39062 11.9033Z" fill="url(#paint0_linear_40013415_7376)"/>
<path d="M11.4549 11.0589C9.74815 11.0589 8.29873 12.2566 7.08577 14.0886C5.37066 16.6772 4.32046 20.5331 4.32046 24.2359C4.32046 25.7632 4.65569 26.9359 5.09385 27.6453L1.41048 30.0712C0.464595 28.498 0 26.4337 0 24.0815C0 19.8042 1.17401 15.346 3.40657 11.9033C5.38736 8.85003 8.24587 6.71484 11.5245 6.71484L11.4549 11.0589Z" fill="url(#paint1_linear_40013415_7376)"/>
<defs>
<linearGradient id="paint0_linear_40013415_7376" x1="8.46918" y1="22.9896" x2="36.011" y2="24.3806" gradientUnits="userSpaceOnUse">
<stop stop-color="#0064E1"/>
<stop offset="0.4" stop-color="#0064E1"/>
<stop offset="0.83" stop-color="#0073EE"/>
<stop offset="1" stop-color="#0082FB"/>
</linearGradient>
<linearGradient id="paint1_linear_40013415_7376" x1="6.25951" y1="26.0498" x2="6.25951" y2="15.8955" gradientUnits="userSpaceOnUse">
<stop stop-color="#0082FB"/>
<stop offset="1" stop-color="#0064E0"/>
</linearGradient>
</defs>
</svg>
