<svg width="40" height="41" viewBox="0 0 40 41" fill="none" xmlns="http://www.w3.org/2000/svg">
<path d="M4.32571 3.61714L25.0666 2.14437C27.6143 1.93428 28.2688 2.0759 29.8709 3.19552L36.4916 7.67941C37.5835 8.45057 37.9471 8.66066 37.9471 9.50028V34.0919C37.9471 35.6332 37.365 36.5449 35.327 36.684L11.2415 38.0865C9.71212 38.156 8.98381 37.9459 8.18278 36.9647L3.30728 30.8696C2.43278 29.7479 2.07031 28.9082 2.07031 27.9266V6.06755C2.07031 4.80739 2.65243 3.75659 4.32571 3.61714Z" fill="white" stroke="white" stroke-width="4.12321" stroke-miterlimit="10"/>
<path fill-rule="evenodd" clip-rule="evenodd" d="M25.0666 2.14473L4.32571 3.6175C2.65243 3.75659 2.07031 4.80775 2.07031 6.06755V27.9266C2.07031 28.9079 2.43278 29.7475 3.30728 30.8696L8.18278 36.9643C8.98381 37.9456 9.71212 38.156 11.2415 38.0861L35.3274 36.6843C37.3639 36.5449 37.9475 35.6332 37.9475 34.0923V9.50064C37.9475 8.70426 37.6202 8.47471 36.6569 7.79508L29.8709 3.19552C28.2692 2.0759 27.6143 1.93464 25.0666 2.14473ZM11.7861 9.09812C9.81932 9.22533 9.37327 9.25416 8.25625 8.38102L5.41648 6.20953C5.12786 5.92845 5.27292 5.57782 6.00011 5.50792L25.9388 4.10722C27.6132 3.96668 28.4851 4.52775 29.1399 5.01783L32.5596 7.39978C32.7058 7.47077 33.0693 7.88986 32.6319 7.88986L12.041 9.08155L11.7861 9.09812ZM9.49321 33.8822V13.0058C9.49321 12.0941 9.78446 11.6736 10.6563 11.6029L34.3063 10.2718C35.1085 10.2023 35.4709 10.6923 35.4709 11.6026V32.3399C35.4709 33.2516 35.3247 34.0227 34.0154 34.0923L11.3839 35.3535C10.0746 35.4231 9.49359 35.004 9.49359 33.8822H9.49321ZM31.8335 14.1251C31.9786 14.7557 31.8335 15.3863 31.1775 15.4584L30.0868 15.6663V31.0797C29.1396 31.5698 28.2677 31.8498 27.539 31.8498C26.3744 31.8498 26.0835 31.4992 25.2113 30.4491L18.0781 19.6601V30.0985L20.3346 30.5897C20.3346 30.5897 20.3346 31.8509 18.514 31.8509L13.495 32.1309C13.3488 31.8498 13.495 31.1496 14.0036 31.0102L15.3144 30.6606V16.8591L13.4953 16.7175C13.3492 16.0868 13.7128 15.1762 14.7323 15.1056L20.1176 14.7571L27.5394 25.6856V16.0173L25.6476 15.8083C25.5014 15.036 26.0835 14.475 26.8107 14.4065L31.8335 14.1251Z" fill="#121019"/>
</svg>
