<svg width="40" height="40" viewBox="0 0 40 40" fill="none" xmlns="http://www.w3.org/2000/svg">
<path d="M40 20C40 31.0451 31.0451 40 20 40C8.95349 40 0 31.0451 0 20C0 8.95349 8.95417 0 20 0C31.0451 0 40 8.95417 40 20Z" fill="#DA552F"/>
<path d="M22.6584 20H16.9922V14H22.6584C23.0524 14 23.4425 14.0776 23.8064 14.2284C24.1704 14.3791 24.5011 14.6001 24.7797 14.8787C25.0583 15.1573 25.2793 15.488 25.43 15.8519C25.5808 16.2159 25.6584 16.606 25.6584 17C25.6584 17.394 25.5808 17.7841 25.43 18.1481C25.2793 18.512 25.0583 18.8427 24.7797 19.1213C24.5011 19.3999 24.1704 19.6209 23.8064 19.7716C23.4425 19.9224 23.0524 20 22.6584 20ZM22.6584 10H12.9922V30H16.9922V24H22.6584C26.5243 24 29.6584 20.8659 29.6584 17C29.6584 13.1341 26.5243 10 22.6584 10Z" fill="white"/>
</svg>
