<svg width="40" height="40" viewBox="0 0 40 40" fill="none" xmlns="http://www.w3.org/2000/svg">
<g clip-path="url(#clip0_40013415_7367)">
<path d="M13.3307 39.9974C17.0107 39.9974 19.9974 37.0107 19.9974 33.3307V26.6641H13.3307C9.65073 26.6641 6.66406 29.6507 6.66406 33.3307C6.66406 37.0107 9.65073 39.9974 13.3307 39.9974Z" fill="#0ACF83"/>
<path d="M6.66406 19.9987C6.66406 16.3187 9.65073 13.332 13.3307 13.332H19.9974V26.6654H13.3307C9.65073 26.6654 6.66406 23.6787 6.66406 19.9987Z" fill="#A259FF"/>
<path d="M6.66406 6.66667C6.66406 2.98667 9.65073 0 13.3307 0H19.9974V13.3333H13.3307C9.65073 13.3333 6.66406 10.3467 6.66406 6.66667Z" fill="#F24E1E"/>
<path d="M20 0H26.6667C30.3467 0 33.3333 2.98667 33.3333 6.66667C33.3333 10.3467 30.3467 13.3333 26.6667 13.3333H20V0Z" fill="#FF7262"/>
<path d="M33.3333 19.9987C33.3333 23.6787 30.3467 26.6654 26.6667 26.6654C22.9867 26.6654 20 23.6787 20 19.9987C20 16.3187 22.9867 13.332 26.6667 13.332C30.3467 13.332 33.3333 16.3187 33.3333 19.9987Z" fill="#1ABCFE"/>
</g>
<defs>
<clipPath id="clip0_40013415_7367">
<rect width="40" height="39.9974" fill="white"/>
</clipPath>
</defs>
</svg>
