<svg width="40" height="40" viewBox="0 0 40 40" fill="none" xmlns="http://www.w3.org/2000/svg">
<g clip-path="url(#clip0_40013415_7370)">
<path fill-rule="evenodd" clip-rule="evenodd" d="M9.03219 0H30.9677C35.9355 0 40 4.08335 40 9.07401V30.9259C40 35.9166 35.9355 39.9999 30.9677 39.9999H9.03219C4.06453 39.9999 0 35.9166 0 30.9259V9.07401C0 4.08335 4.06453 0 9.03219 0Z" fill="#D77655"/>
<path d="M11.1034 24.8415L16.8577 21.598L16.9545 21.3163L16.8577 21.1596L16.5773 21.1595L15.6156 21.1L12.3278 21.0107L9.47641 20.8917L6.71383 20.7429L6.01875 20.5941L5.36719 19.7312L5.4343 19.3007L6.01883 18.9059L6.85609 18.9793L8.70633 19.1062L11.4827 19.2987L13.4969 19.4178L16.4807 19.7292H16.9545L17.0216 19.5368L16.8597 19.4178L16.7333 19.2987L13.8602 17.3426L10.75 15.2755L9.12094 14.0851L8.24023 13.4821L7.79594 12.9167L7.60445 11.6828L8.40422 10.798L9.47844 10.8714L9.75289 10.9449L10.841 11.7859L13.1652 13.5933L16.2002 15.8389L16.6445 16.2099L16.8222 16.083L16.8439 15.9937L16.6445 15.6585L14.9937 12.6608L13.2323 9.61178L12.4483 8.34807L12.2409 7.59028C12.1679 7.27884 12.1146 7.01701 12.1146 6.69757L13.0249 5.45567L13.5284 5.29297L14.7429 5.45567L15.2544 5.90203L16.0087 7.63596L17.231 10.3657L19.1267 14.0774L19.6816 15.1785L19.9778 16.1982L20.0884 16.5096L20.2798 16.5095V16.331L20.4358 14.24L20.7241 11.6729L21.0044 8.36989L21.1012 7.4395L21.5593 6.32452L22.4696 5.72151L23.1805 6.06277L23.765 6.90383L23.6841 7.44743L23.3365 9.71688L22.6552 13.2719L22.2109 15.6524H22.4698L22.766 15.3549L23.9646 13.756L25.9788 11.2266L26.8674 10.2228L27.9041 9.11386L28.5695 8.58612L29.8273 8.58604L30.7534 9.96874L30.3388 11.3971L29.0434 13.0476L27.9692 14.4462L26.4289 16.5292L25.4673 18.1956L25.5562 18.3285L25.7852 18.3067L29.2646 17.5627L31.1445 17.2215L33.3877 16.8348L34.4027 17.3109L34.5134 17.7949L34.1145 18.7848L31.7152 19.38L28.9013 19.9454L24.711 20.9413L24.6597 20.979L24.7189 21.0524L26.6067 21.231L27.4143 21.2746H29.3909L33.0717 21.5504L34.0334 22.1892L34.61 22.9709L34.5133 23.566L33.0323 24.3238L31.0339 23.8477L26.3697 22.7328L24.7702 22.3321L24.5491 22.332V22.4649L25.882 23.7742L28.3246 25.9902L31.3834 28.8468L31.5394 29.5532L31.1464 30.1106L30.7318 30.0511L28.0442 28.0196L27.0075 27.1051L24.6596 25.1193L24.5037 25.1192V25.3275L25.0448 26.123L27.9021 30.4379L28.0502 31.7611L27.8429 32.1916L27.1023 32.4514L26.2887 32.3027L24.6162 29.9439L22.8903 27.2876L21.4982 24.907L21.3284 25.0041L20.507 33.8936L20.1219 34.3479L19.2333 34.6892L18.4928 34.1238L18.0998 33.2092L18.4928 31.4019L18.9667 29.0432L19.3517 27.1685L19.6993 24.8395L19.9066 24.0657L19.8928 24.0142L19.723 24.036L17.9754 26.4463L15.3175 30.0549L13.2145 32.3165L12.7109 32.5169L11.838 32.0625L11.9191 31.2512L12.4068 30.5291L15.3175 26.8095L17.073 24.5043L18.2064 23.173L18.1985 22.9807H18.1314L10.4006 28.0235L9.02422 28.2021L8.4318 27.6446L8.50492 26.7301L8.78531 26.4325L11.1095 24.8256L11.1016 24.8336L11.1034 24.8415Z" fill="#FCF2EE"/>
</g>
<defs>
<clipPath id="clip0_40013415_7370">
<rect width="40" height="40" fill="white"/>
</clipPath>
</defs>
</svg>
