<svg width="40" height="40" viewBox="0 0 40 40" fill="none" xmlns="http://www.w3.org/2000/svg">
<g clip-path="url(#clip0_40013415_7372)">
<mask id="mask0_40013415_7372" style="mask-type:alpha" maskUnits="userSpaceOnUse" x="0" y="0" width="40" height="40">
<path fill-rule="evenodd" clip-rule="evenodd" d="M11.9235 0C18.5087 0 23.847 5.29675 23.847 11.8307V16.3271H27.8152C34.4003 16.3271 39.7388 21.6238 39.7388 28.1577C39.7388 34.6915 34.4003 39.9882 27.8152 39.9882H0V11.8307C0 5.29675 5.33835 0 11.9235 0Z" fill="url(#paint0_linear_40013415_7372)"/>
</mask>
<g mask="url(#mask0_40013415_7372)">
<g filter="url(#filter0_f_40013415_7372)">
<path d="M17.4236 47.9596C32.2801 47.9596 44.3237 36.0412 44.3237 21.3392C44.3237 6.63712 32.2801 -5.28125 17.4236 -5.28125C2.56703 -5.28125 -9.47656 6.63712 -9.47656 21.3392C-9.47656 36.0412 2.56703 47.9596 17.4236 47.9596Z" fill="#4B73FF"/>
</g>
<g filter="url(#filter1_f_40013415_7372)">
<path d="M20.3813 33.3502C39.4083 33.3502 54.8328 21.4319 54.8328 6.7298C54.8328 -7.97225 39.4083 -19.8906 20.3813 -19.8906C1.35418 -19.8906 -14.0703 -7.97225 -14.0703 6.7298C-14.0703 21.4319 1.35418 33.3502 20.3813 33.3502Z" fill="#FF66F4"/>
</g>
<g filter="url(#filter2_f_40013415_7372)">
<path d="M26.0017 25.1006C40.8582 25.1006 52.9018 14.6337 52.9018 1.72218C52.9018 -11.1894 40.8582 -21.6562 26.0017 -21.6562C11.1452 -21.6562 -0.898438 -11.1894 -0.898438 1.72218C-0.898438 14.6337 11.1452 25.1006 26.0017 25.1006Z" fill="#FF0105"/>
</g>
<g filter="url(#filter3_f_40013415_7372)">
<path d="M20.8573 22.7376C29.792 22.7376 37.035 15.57 37.035 6.72819C37.035 -2.11358 29.792 -9.28125 20.8573 -9.28125C11.9227 -9.28125 4.67969 -2.11358 4.67969 6.72819C4.67969 15.57 11.9227 22.7376 20.8573 22.7376Z" fill="#FE7B02"/>
</g>
</g>
</g>
<defs>
<filter id="filter0_f_40013415_7372" x="-21.5054" y="-17.3101" width="77.8545" height="77.2998" filterUnits="userSpaceOnUse" color-interpolation-filters="sRGB">
<feFlood flood-opacity="0" result="BackgroundImageFix"/>
<feBlend mode="normal" in="SourceGraphic" in2="BackgroundImageFix" result="shape"/>
<feGaussianBlur stdDeviation="6.01441" result="effect1_foregroundBlur_40013415_7372"/>
</filter>
<filter id="filter1_f_40013415_7372" x="-26.0991" y="-31.9195" width="92.9639" height="77.2998" filterUnits="userSpaceOnUse" color-interpolation-filters="sRGB">
<feFlood flood-opacity="0" result="BackgroundImageFix"/>
<feBlend mode="normal" in="SourceGraphic" in2="BackgroundImageFix" result="shape"/>
<feGaussianBlur stdDeviation="6.01441" result="effect1_foregroundBlur_40013415_7372"/>
</filter>
<filter id="filter2_f_40013415_7372" x="-12.9273" y="-33.6851" width="77.8545" height="70.8155" filterUnits="userSpaceOnUse" color-interpolation-filters="sRGB">
<feFlood flood-opacity="0" result="BackgroundImageFix"/>
<feBlend mode="normal" in="SourceGraphic" in2="BackgroundImageFix" result="shape"/>
<feGaussianBlur stdDeviation="6.01441" result="effect1_foregroundBlur_40013415_7372"/>
</filter>
<filter id="filter3_f_40013415_7372" x="-7.34914" y="-21.3101" width="56.4092" height="56.0772" filterUnits="userSpaceOnUse" color-interpolation-filters="sRGB">
<feFlood flood-opacity="0" result="BackgroundImageFix"/>
<feBlend mode="normal" in="SourceGraphic" in2="BackgroundImageFix" result="shape"/>
<feGaussianBlur stdDeviation="6.01441" result="effect1_foregroundBlur_40013415_7372"/>
</filter>
<linearGradient id="paint0_linear_40013415_7372" x1="13.3728" y1="7.02725" x2="25.258" y2="40.0532" gradientUnits="userSpaceOnUse">
<stop offset="0.025" stop-color="#FF8E63"/>
<stop offset="0.56" stop-color="#FF7EB0"/>
<stop offset="0.95" stop-color="#4B73FF"/>
</linearGradient>
<clipPath id="clip0_40013415_7372">
<rect width="40" height="40" fill="white"/>
</clipPath>
</defs>
</svg>
