<svg width="40" height="40" viewBox="0 0 40 40" fill="none" xmlns="http://www.w3.org/2000/svg">
<g clip-path="url(#clip0_40013415_7368)">
<path d="M0.304688 10.0707C0.304688 4.62135 4.72904 0.195312 10.1801 0.195312H29.9293C35.3803 0.195312 39.8047 4.61966 39.8047 10.0707V29.8199C39.8047 35.2709 35.3803 39.6953 29.9293 39.6953H10.1801C4.72904 39.6953 0.304688 35.2709 0.304688 29.8199V10.0707Z" fill="#FFDD33"/>
<path fill-rule="evenodd" clip-rule="evenodd" d="M26.5575 7.72266H22.9742L25.9631 12.9727L19.3908 7.72266H15.8074L19.0936 14.1345L12.224 7.72266H8.64062L12.224 15.8908L8.64062 32.2254H12.224L19.0936 14.7273L15.8074 32.2254H19.3908L25.9631 13.557L22.9742 32.2254H26.5575L33.1299 11.8109L26.5575 7.7311V7.72266Z" fill="#1C1C1E"/>
</g>
<defs>
<clipPath id="clip0_40013415_7368">
<rect width="40" height="40" fill="white"/>
</clipPath>
</defs>
</svg>
