<svg width="40" height="40" viewBox="0 0 40 40" fill="none" xmlns="http://www.w3.org/2000/svg">
<path fill-rule="evenodd" clip-rule="evenodd" d="M39.7222 22.0069L29.5889 21.1841C29.6333 20.795 29.6556 20.4058 29.6556 20.0056C29.6556 19.5052 29.6222 19.016 29.5444 18.5379L34.4556 18.0709C34.6111 18.0598 34.7444 18.1821 34.7444 18.3378L34.7444 19.1717L39.7111 18.7714C39.8667 18.7603 40 18.8826 40 19.0271L40 21.7512C40 21.9069 39.8667 22.0292 39.7111 22.0069L39.7222 22.0069ZM39.2222 15.1356C39.3667 15.0911 39.4556 14.9354 39.4 14.7909L38.4667 12.2336C38.4111 12.0891 38.2444 12.0224 38.1111 12.0891L33.5778 14.1683L33.2889 13.3788C33.2333 13.2343 33.0667 13.1676 32.9333 13.2343L28.4778 15.358C28.9 16.1251 29.2222 16.959 29.4222 17.8374L39.2222 15.1467L39.2222 15.1356ZM36.4 8.86466L28.1111 14.7464C27.6222 14.0015 27.0444 13.3232 26.3778 12.7451L29.8444 9.22046C29.9556 9.10927 30.1333 9.12039 30.2333 9.23158L30.7667 9.87646L34.3111 6.37408C34.4222 6.26289 34.6 6.27401 34.7 6.39632L36.4444 8.47551C36.5444 8.59781 36.5222 8.76459 36.4 8.85354L36.4 8.86466ZM31.6 3.92797C31.6889 3.80567 31.6444 3.62777 31.5111 3.54994L29.1556 2.19346C29.0222 2.11563 28.8556 2.17122 28.7889 2.30465L26.6556 6.81882L25.9333 6.39632C25.8 6.31848 25.6222 6.37408 25.5667 6.51862L23.5111 11.0106C24.3444 11.333 25.1222 11.7666 25.8222 12.3003L31.6 3.92797ZM25.2 0.603492C25.3556 0.625729 25.4444 0.78139 25.4111 0.925933L22.8444 10.7659C22.0111 10.5102 21.1333 10.3657 20.2222 10.3434L20.6222 5.41787C20.6333 5.26221 20.7778 5.15102 20.9333 5.18438L21.7556 5.32892L22.2222 0.358881C22.2333 0.20322 22.3778 0.103152 22.5333 0.125389L25.2111 0.592373L25.2 0.603492ZM18.5556 0.236575C18.5444 0.0809141 18.4 -0.0191538 18.2444 0.0030835L15.5667 0.481186C15.4111 0.503423 15.3222 0.659085 15.3556 0.803627L16.6111 5.62913L15.7889 5.77367C15.6333 5.79591 15.5444 5.95157 15.5778 6.09611L16.8889 10.8549C17.7111 10.5769 18.5889 10.399 19.4889 10.3546L18.5556 0.225457L18.5556 0.236575ZM11.5111 1.81543C11.6444 1.73759 11.8111 1.79319 11.8778 1.92661L16.2333 11.1106C15.4111 11.4553 14.6444 11.9223 13.9556 12.4782L11.0889 8.45327C11 8.33096 11.0333 8.15306 11.1667 8.07523L11.9 7.65272L9.06667 3.54994C8.97778 3.42763 9.02222 3.24973 9.15555 3.1719L11.5111 1.80431L11.5111 1.81543ZM13.4222 12.9452L6.18889 5.79591C6.07777 5.68472 5.9 5.69584 5.8 5.81814L4.05555 7.90845C3.95555 8.03076 3.97778 8.19754 4.1 8.28649L8.16667 11.1773L7.62222 11.8222C7.52222 11.9445 7.54444 12.1224 7.67778 12.2114L11.7444 15.0133C12.2111 14.2572 12.7778 13.5567 13.4222 12.9563L13.4222 12.9452ZM1.81111 11.5331C1.86666 11.3886 2.03333 11.3219 2.16666 11.3886L11.4111 15.6248C11.0111 16.4031 10.7111 17.2481 10.5444 18.1265L5.76667 16.8812C5.62222 16.8479 5.53333 16.6811 5.58889 16.5365L5.87778 15.7471L1.06667 14.424C0.922218 14.3795 0.833331 14.2239 0.888885 14.0793L1.82222 11.522L1.81111 11.5331ZM10.4222 18.827L0.288886 18.0042C0.133331 17.9931 -7.91849e-07 18.1154 -7.98167e-07 18.2599L-9.1724e-07 20.984C-9.24044e-07 21.1397 0.13333 21.262 0.288886 21.2397L5.25555 20.8395L5.25555 21.6734C5.25555 21.829 5.38888 21.9513 5.54444 21.9402L10.4556 21.4732C10.3778 20.9951 10.3444 20.5059 10.3444 20.0056C10.3444 19.6053 10.3667 19.2161 10.4222 18.827ZM37.8556 28.6336C38 28.7004 38.1556 28.6336 38.2111 28.4891L39.1444 25.9318C39.2 25.7873 39.1111 25.6316 38.9667 25.5871L34.1556 24.264L34.4444 23.4746C34.5 23.33 34.4111 23.1744 34.2667 23.1299L29.4889 21.8846C29.3111 22.7741 29.0111 23.608 28.6222 24.3863L37.8556 28.6336ZM33.8222 34.2152L26.5889 27.0659C27.2333 26.4655 27.8 25.7761 28.2667 25.009L32.3333 27.8109C32.4556 27.8998 32.4889 28.0777 32.3889 28.2L31.8444 28.8449L35.9111 31.7358C36.0333 31.8247 36.0556 32.0026 35.9556 32.1138L34.2111 34.2041C34.1111 34.3264 33.9333 34.3264 33.8222 34.2263L33.8222 34.2152ZM28.1333 38.0845C28.2 38.229 28.3667 38.2735 28.5 38.1957L30.8556 36.8281C30.9889 36.7503 31.0222 36.5724 30.9444 36.4501L28.1111 32.3473L28.8333 31.9248C28.9667 31.8469 29.0111 31.669 28.9111 31.5467L26.0444 27.5218C25.3556 28.0777 24.5889 28.5336 23.7667 28.8894L28.1222 38.0734L28.1333 38.0845ZM24.4444 39.5299L21.7667 39.9969C21.6111 40.0192 21.4778 39.9191 21.4556 39.7634L20.5111 29.6343C21.4222 29.5898 22.2889 29.4119 23.1111 29.134L24.4222 33.8928C24.4667 34.0373 24.3667 34.193 24.2111 34.2152L23.3889 34.3598L24.6444 39.1853C24.6778 39.3298 24.5889 39.4855 24.4333 39.5077L24.4444 39.5299ZM14.6111 39.0741C14.5778 39.2186 14.6667 39.3743 14.8222 39.3965L17.5 39.8635C17.6556 39.8857 17.7889 39.7857 17.8111 39.63L18.2778 34.66L19.1 34.8045C19.2556 34.8267 19.3889 34.7267 19.4111 34.571L19.8111 29.6454C18.9 29.6232 18.0222 29.4787 17.1889 29.2229L14.6222 39.0629L14.6111 39.0741ZM8.5 36.4501C8.36666 36.3722 8.33333 36.1943 8.41111 36.072L14.1889 27.6997C14.8889 28.2334 15.6667 28.667 16.5 28.9894L14.4444 33.4814C14.3778 33.6259 14.2111 33.6815 14.0778 33.6037L13.3556 33.1812L11.2222 37.6954C11.1556 37.8288 10.9889 37.8844 10.8556 37.8065L8.5 36.4501ZM11.9111 25.2536L3.62222 31.1353C3.49999 31.2243 3.47777 31.4022 3.57777 31.5134L5.32222 33.5926C5.42222 33.7149 5.6 33.7149 5.71111 33.6148L9.25555 30.1124L9.78889 30.7573C9.88889 30.8796 10.0667 30.8796 10.1778 30.7684L13.6444 27.2438C12.9778 26.6545 12.3889 25.9874 11.9111 25.2424L11.9111 25.2536ZM0.622218 25.198C0.566661 25.0534 0.655551 24.8978 0.799994 24.8533L10.6 22.1626C10.8 23.041 11.1222 23.8749 11.5444 24.642L7.08889 26.7657C6.94444 26.8324 6.77777 26.7657 6.73333 26.6212L6.44444 25.8317L1.9111 27.9109C1.76666 27.9776 1.61111 27.9109 1.55555 27.7664L0.622218 25.2091L0.622218 25.198Z" fill="white"/>
</svg>
