<svg width="44" height="44" viewBox="0 0 44 44" fill="none" xmlns="http://www.w3.org/2000/svg">
<path d="M18.6791 44L12.036 40.1613V35.4364L7.94782 37.7986L1.30469 33.9599V26.2821L5.39286 23.9199L1.30469 21.5572V13.8793C8.2842 9.84625 18.5257 3.92789 25.3223 0L31.966 3.83923V8.56411L36.0541 6.20139L42.6973 10.0406V17.7185L38.6091 20.0807L42.6973 22.4434V30.1213L18.6791 44Z" fill="white" fill-opacity="0.16"/>
<path d="M33.798 27.5825V32.6564C32.3792 33.4761 32.0981 33.6385 29.4079 35.1933L25.0179 32.6564V28.559L22.5829 27.1518C21.823 28.0702 20.7466 28.7162 19.521 28.9215V31.7352L23.0667 33.7839V38.8578C20.3884 40.4053 20.1034 40.5699 18.6761 41.3947C17.1705 40.5243 15.4587 39.5354 14.286 38.8578V33.7839L17.8312 31.7352V28.9209C16.6055 28.7157 15.5291 28.0696 14.7698 27.1518L12.3348 28.559V32.6564L7.94477 35.1933C3.86054 32.8328 4.78317 33.3656 3.55469 32.6564V27.5825L7.94477 25.0456L11.49 27.0943L13.9238 25.6877C13.5008 24.55 13.5014 23.2833 13.9238 22.1484L11.49 20.7418L7.94477 22.7905L3.55469 20.2536V15.1797C5.04621 14.3177 6.79177 13.3086 7.94477 12.6428L12.3348 15.1797V19.2772L14.7698 20.6843C15.5291 19.7659 16.6055 19.1204 17.8312 18.9152V16.1009L14.286 14.0522V8.97834C18.3708 6.61786 17.4482 7.15062 18.6761 6.44141C20.1935 7.31806 22.1717 8.46081 23.0667 8.97834V14.0522L19.521 16.1009V18.9147C20.7466 19.1199 21.823 19.7659 22.5829 20.6843L25.0179 19.2772V15.1797L29.4079 12.6428C29.7262 12.8266 32.4642 14.4085 33.798 15.1797V20.2536L29.4079 22.7905L25.8628 20.7418L23.4283 22.1484C23.8519 23.2855 23.8513 24.5523 23.4283 25.6877L25.8628 27.0943L29.4079 25.0456L33.798 27.5825ZM21.066 21.526C19.7465 20.2053 17.608 20.2035 16.2867 21.526C14.1772 23.6394 15.6571 27.3001 18.6766 27.3001C19.6094 27.3001 20.4543 26.9212 21.066 26.3095C22.3856 24.9887 22.3873 22.8485 21.066 21.526Z" fill="white"/>
</svg>
