<svg width="48" height="48" viewBox="0 0 48 48" fill="none" xmlns="http://www.w3.org/2000/svg">
<rect width="48" height="48" rx="24" fill="#FF4E02"/>
<path fill-rule="evenodd" clip-rule="evenodd" d="M14 24C14 18.4772 18.4772 14 24 14C29.5228 14 34 18.4772 34 24C34 29.5228 29.5228 34 24 34C18.4772 34 14 29.5228 14 24ZM27.7071 22.7071C28.0976 22.3166 28.0976 21.6834 27.7071 21.2929C27.3166 20.9024 26.6834 20.9024 26.2929 21.2929L23 24.5858L21.7071 23.2929C21.3166 22.9024 20.6834 22.9024 20.2929 23.2929C19.9024 23.6834 19.9024 24.3166 20.2929 24.7071L22.2929 26.7071C22.6834 27.0976 23.3166 27.0976 23.7071 26.7071L27.7071 22.7071Z" fill="white"/>
</svg>
