<svg width="24" height="24" viewBox="0 0 24 24" fill="none" xmlns="http://www.w3.org/2000/svg">
<path fill-rule="evenodd" clip-rule="evenodd" d="M12.4141 3.66797C12.9886 3.66797 13.5087 3.90051 13.8856 4.2766C13.9002 4.29117 13.9146 4.30596 13.9288 4.32095C14.2619 4.67362 14.4732 5.14257 14.4955 5.66052L14.4961 5.67801C14.497 5.70234 14.4974 5.72677 14.4974 5.7513V5.76319C14.4974 5.79706 14.518 5.82751 14.5493 5.84049C14.5806 5.85347 14.6167 5.84649 14.6406 5.82252L14.649 5.81412C14.6664 5.79677 14.684 5.77979 14.7018 5.76319L14.7146 5.7513C15.0966 5.40075 15.5776 5.21858 16.0625 5.20477C16.0832 5.20419 16.1038 5.2039 16.1244 5.20393C16.6568 5.20449 17.1891 5.40788 17.5953 5.81412L18.1846 6.40337C18.5908 6.80961 18.7942 7.34186 18.7948 7.8743C18.7948 7.89492 18.7945 7.91554 18.7939 7.93615C18.7801 8.42109 18.5979 8.90213 18.2474 9.28409L18.2355 9.29693C18.2189 9.31473 18.2019 9.33231 18.1846 9.34965L18.1762 9.35806C18.1522 9.38203 18.1452 9.41811 18.1582 9.44942C18.1712 9.48071 18.2016 9.5013 18.2355 9.5013H18.2474C18.2719 9.5013 18.2964 9.50173 18.3207 9.50257L18.3382 9.50324C18.8561 9.52545 19.3251 9.73677 19.6777 10.0699C19.6927 10.0841 19.7075 10.0985 19.7221 10.1131C20.0982 10.4899 20.3307 11.0101 20.3307 11.5846V12.418C20.3307 12.9925 20.0982 13.5127 19.7221 13.8895C19.7075 13.9041 19.6927 13.9185 19.6777 13.9327C19.3251 14.2658 18.8561 14.4772 18.3382 14.4994L18.3207 14.5C18.2964 14.5009 18.2719 14.5013 18.2474 14.5013H18.2355C18.2016 14.5013 18.1712 14.5219 18.1582 14.5532C18.1452 14.5845 18.1522 14.6206 18.1762 14.6445L18.1846 14.653C18.2019 14.6703 18.2189 14.6879 18.2355 14.7057L18.2474 14.7185C18.5979 15.1005 18.7801 15.5815 18.7939 16.0664C18.7945 16.0871 18.7948 16.1077 18.7948 16.1283C18.7942 16.6607 18.5908 17.193 18.1846 17.5992L17.5953 18.1885C17.1891 18.5947 16.6568 18.7981 16.1244 18.7987C16.1038 18.7987 16.0832 18.7984 16.0625 18.7978C15.5776 18.784 15.0966 18.6019 14.7146 18.2513L14.7018 18.2394C14.684 18.2228 14.6664 18.2058 14.649 18.1885L14.6406 18.1801C14.6167 18.1561 14.5806 18.1491 14.5493 18.1621C14.518 18.1751 14.4974 18.2055 14.4974 18.2394V18.2513C14.4974 18.2758 14.497 18.3003 14.4961 18.3246L14.4955 18.3421C14.4732 18.86 14.2619 19.329 13.9288 19.6817C13.9146 19.6966 13.9002 19.7114 13.8856 19.726C13.5087 20.1021 12.9886 20.3346 12.4141 20.3346H11.5807C11.0062 20.3346 10.486 20.1021 10.1092 19.726C10.0946 19.7114 10.0802 19.6966 10.066 19.6817C9.73287 19.329 9.52154 18.86 9.49934 18.3421L9.49866 18.3246C9.49782 18.3003 9.4974 18.2758 9.4974 18.2513V18.2394C9.4974 18.2055 9.47681 18.1751 9.44552 18.1621C9.4142 18.1491 9.37812 18.1561 9.35415 18.1801L9.34574 18.1885C9.3284 18.2058 9.31082 18.2228 9.29302 18.2394L9.28018 18.2513C8.89823 18.6019 8.41719 18.784 7.93225 18.7978C7.91163 18.7984 7.89101 18.7987 7.87039 18.7987C7.33796 18.7981 6.8057 18.5947 6.39947 18.1885L5.81021 17.5992C5.40398 17.193 5.20058 16.6607 5.20002 16.1283C5.2 16.1077 5.20028 16.0871 5.20087 16.0664C5.21467 15.5815 5.39685 15.1005 5.7474 14.7185L5.75928 14.7057C5.77589 14.6879 5.79287 14.6703 5.81021 14.653L5.81862 14.6445C5.84259 14.6206 5.84957 14.5845 5.83658 14.5532C5.82361 14.5219 5.79316 14.5013 5.75928 14.5013H5.7474C5.72287 14.5013 5.69843 14.5009 5.67411 14.5L5.65662 14.4994C5.13867 14.4772 4.66971 14.2658 4.31705 13.9327C4.30205 13.9185 4.28726 13.9041 4.27269 13.8895C3.8966 13.5127 3.66406 12.9925 3.66406 12.418V11.5846C3.66406 11.0101 3.8966 10.4899 4.27269 10.1131C4.28726 10.0985 4.30205 10.0841 4.31705 10.0699C4.66971 9.73677 5.13867 9.52545 5.65662 9.50324L5.67411 9.50257C5.69843 9.50173 5.72286 9.5013 5.7474 9.5013H5.75928C5.79316 9.5013 5.82361 9.48071 5.83658 9.44942C5.84957 9.41811 5.84259 9.38203 5.81862 9.35806L5.81021 9.34965C5.79287 9.33231 5.77589 9.31473 5.75928 9.29693L5.7474 9.28409C5.39685 8.90213 5.21467 8.42109 5.20087 7.93615C5.20028 7.91554 5.2 7.89492 5.20002 7.8743C5.20058 7.34186 5.40398 6.80961 5.81021 6.40337L6.39947 5.81412C6.8057 5.40788 7.33796 5.20449 7.87039 5.20393C7.89101 5.2039 7.91163 5.20419 7.93225 5.20477C8.41719 5.21858 8.89823 5.40075 9.28018 5.7513L9.29303 5.76319C9.31082 5.77979 9.3284 5.79677 9.34574 5.81412L9.35415 5.82252C9.37812 5.84649 9.4142 5.85347 9.44552 5.84049C9.47681 5.82751 9.4974 5.79706 9.4974 5.76319V5.7513C9.4974 5.72677 9.49782 5.70234 9.49866 5.67801L9.49934 5.66052C9.52154 5.14257 9.73287 4.67362 10.066 4.32095C10.0802 4.30596 10.0946 4.29117 10.1092 4.2766C10.486 3.90051 11.0062 3.66797 11.5807 3.66797H12.4141ZM11.1641 18.2513C11.1641 18.4814 11.3506 18.668 11.5807 18.668H12.4141C12.6442 18.668 12.8307 18.4814 12.8307 18.2513V18.2394C12.8307 17.5231 13.2651 16.8904 13.9109 16.6226C14.558 16.3542 15.313 16.4954 15.8192 17.0016L15.8276 17.01C15.9903 17.1727 16.2541 17.1727 16.4168 17.01L17.0061 16.4207C17.1688 16.258 17.1688 15.9942 17.0061 15.8315L16.9977 15.8231C16.4915 15.3169 16.3503 14.5619 16.6187 13.9148C16.8865 13.269 17.5192 12.8346 18.2355 12.8346H18.2474C18.4775 12.8346 18.6641 12.6481 18.6641 12.418V11.5846C18.6641 11.3545 18.4775 11.168 18.2474 11.168H18.2355C17.5192 11.168 16.8865 10.7337 16.6187 10.0878C16.3503 9.44069 16.4915 8.68574 16.9977 8.17954L17.0061 8.17114C17.1688 8.00842 17.1688 7.7446 17.0061 7.58189L16.4168 6.99263C16.2541 6.82991 15.9903 6.82991 15.8276 6.99263L15.8192 7.00103C15.313 7.50722 14.558 7.6484 13.9109 7.38004C13.265 7.11223 12.8307 6.47948 12.8307 5.76319V5.7513C12.8307 5.52118 12.6442 5.33464 12.4141 5.33464H11.5807C11.3506 5.33464 11.1641 5.52118 11.1641 5.7513V5.76319C11.1641 6.47948 10.7298 7.11223 10.0839 7.38004C9.43677 7.6484 8.68183 7.50722 8.17564 7.00103L8.16723 6.99263C8.00451 6.82991 7.7407 6.82991 7.57798 6.99263L6.98872 7.58189C6.826 7.7446 6.826 8.00842 6.98872 8.17114L6.99712 8.17954C7.50332 8.68574 7.64449 9.44069 7.37613 10.0878C7.10832 10.7337 6.47558 11.168 5.75928 11.168H5.7474C5.51728 11.168 5.33073 11.3545 5.33073 11.5846V12.418C5.33073 12.6481 5.51728 12.8346 5.7474 12.8346H5.75928C6.47558 12.8346 7.10832 13.269 7.37612 13.9148C7.64449 14.5619 7.50332 15.3169 6.99713 15.8231L6.98872 15.8315C6.826 15.9942 6.826 16.258 6.98872 16.4207L7.57798 17.01C7.7407 17.1727 8.00452 17.1727 8.16723 17.01L8.17564 17.0016C8.68183 16.4954 9.43678 16.3542 10.0839 16.6226C10.7297 16.8904 11.1641 17.5231 11.1641 18.2394V18.2513Z" fill="#95969C"/>
<path fill-rule="evenodd" clip-rule="evenodd" d="M11.9974 13.668C12.9179 13.668 13.6641 12.9218 13.6641 12.0013C13.6641 11.0808 12.9179 10.3346 11.9974 10.3346C11.0769 10.3346 10.3307 11.0808 10.3307 12.0013C10.3307 12.9218 11.0769 13.668 11.9974 13.668ZM11.9974 15.3346C13.8383 15.3346 15.3307 13.8423 15.3307 12.0013C15.3307 10.1604 13.8383 8.66797 11.9974 8.66797C10.1564 8.66797 8.66406 10.1604 8.66406 12.0013C8.66406 13.8423 10.1564 15.3346 11.9974 15.3346Z" fill="#95969C"/>
</svg>
