<svg width="24" height="24" viewBox="0 0 24 24" fill="none" xmlns="http://www.w3.org/2000/svg">
<path d="M13.8704 5.33203C14.5412 5.33202 15.0948 5.33201 15.5458 5.36886C16.0142 5.40713 16.4448 5.48927 16.8492 5.69534C17.4764 6.01492 17.9864 6.52486 18.306 7.15206C18.512 7.55651 18.5942 7.9871 18.6324 8.45551C18.6693 8.90651 18.6693 9.46015 18.6693 10.131V15.5331C18.6693 16.2039 18.6693 16.7576 18.6324 17.2086C18.5942 17.677 18.512 18.1076 18.306 18.512C17.9864 19.1392 17.4764 19.6491 16.8492 19.9687C16.4448 20.1748 16.0142 20.2569 15.5458 20.2952C15.0948 20.3321 14.5412 20.332 13.8704 20.332H10.1348C9.46404 20.332 8.91041 20.3321 8.45942 20.2952C7.991 20.2569 7.56042 20.1748 7.15597 19.9687C6.52876 19.6491 6.01883 19.1392 5.69925 18.512C5.49317 18.1076 5.41104 17.677 5.37277 17.2086C5.33592 16.7576 5.33593 16.2039 5.33594 15.5331V15.5331V10.1309V10.1309C5.33593 9.46013 5.33592 8.9065 5.37277 8.45551C5.41104 7.9871 5.49317 7.55651 5.69925 7.15206C6.01883 6.52486 6.52876 6.01492 7.15597 5.69534C7.56042 5.48927 7.991 5.40713 8.45942 5.36886C8.91041 5.33201 9.46404 5.33202 10.1348 5.33203H10.1349H10.3359V6.9987H10.1693C9.45546 6.9987 8.97021 6.99935 8.59514 7.02999C8.22979 7.05984 8.04295 7.11395 7.91262 7.18035C7.59902 7.34014 7.34405 7.59511 7.18426 7.90871C7.11785 8.03905 7.06375 8.22588 7.0339 8.59123C7.00325 8.9663 7.0026 9.45155 7.0026 10.1654V15.4987C7.0026 16.2125 7.00325 16.6978 7.0339 17.0728C7.06375 17.4382 7.11785 17.625 7.18426 17.7554C7.34405 18.069 7.59902 18.3239 7.91262 18.4837C8.04295 18.5501 8.22979 18.6042 8.59514 18.6341C8.97021 18.6647 9.45546 18.6654 10.1693 18.6654H13.8359C14.5498 18.6654 15.035 18.6647 15.4101 18.6341C15.7754 18.6042 15.9623 18.5501 16.0926 18.4837C16.4062 18.3239 16.6612 18.069 16.8209 17.7554C16.8874 17.625 16.9415 17.4382 16.9713 17.0728C17.002 16.6978 17.0026 16.2125 17.0026 15.4987V10.1654C17.0026 9.45155 17.002 8.9663 16.9713 8.59123C16.9415 8.22588 16.8874 8.03905 16.8209 7.90871C16.6612 7.59511 16.4062 7.34014 16.0926 7.18035C15.9623 7.11395 15.7754 7.05984 15.4101 7.02999C15.035 6.99935 14.5498 6.9987 13.8359 6.9987H13.6693V5.33203H13.8704H13.8704Z" fill="#95969C"/>
<path fill-rule="evenodd" clip-rule="evenodd" d="M9.4974 11.168C9.03716 11.168 8.66406 11.5411 8.66406 12.0013C8.66406 12.4615 9.03716 12.8346 9.4974 12.8346H14.4974C14.9576 12.8346 15.3307 12.4615 15.3307 12.0013C15.3307 11.5411 14.9576 11.168 14.4974 11.168H9.4974ZM9.4974 14.5013C9.03716 14.5013 8.66406 14.8744 8.66406 15.3346C8.66406 15.7949 9.03716 16.168 9.4974 16.168H12.8307C13.291 16.168 13.6641 15.7949 13.6641 15.3346C13.6641 14.8744 13.291 14.5013 12.8307 14.5013H9.4974Z" fill="#95969C"/>
<path fill-rule="evenodd" clip-rule="evenodd" d="M8.66406 6.16797C8.66406 4.78726 9.78335 3.66797 11.1641 3.66797H12.8307C14.2114 3.66797 15.3307 4.78726 15.3307 6.16797C15.3307 7.54868 14.2114 8.66797 12.8307 8.66797H11.1641C9.78335 8.66797 8.66406 7.54868 8.66406 6.16797ZM11.1641 5.33464C10.7038 5.33464 10.3307 5.70773 10.3307 6.16797C10.3307 6.62821 10.7038 7.0013 11.1641 7.0013H12.8307C13.291 7.0013 13.6641 6.62821 13.6641 6.16797C13.6641 5.70773 13.291 5.33464 12.8307 5.33464H11.1641Z" fill="#95969C"/>
</svg>
