<svg width="24" height="24" viewBox="0 0 24 24" fill="none" xmlns="http://www.w3.org/2000/svg">
<path d="M7.83073 8.66536C7.83073 7.74489 8.57692 6.9987 9.4974 6.9987C9.95763 6.9987 10.3307 6.6256 10.3307 6.16536C10.3307 5.70513 9.95763 5.33203 9.4974 5.33203C7.65645 5.33203 6.16406 6.82442 6.16406 8.66536C6.16406 10.5063 7.65645 11.9987 9.4974 11.9987C9.95763 11.9987 10.3307 11.6256 10.3307 11.1654C10.3307 10.7051 9.95763 10.332 9.4974 10.332C8.57692 10.332 7.83073 9.58584 7.83073 8.66536Z" fill="#95969C"/>
<path d="M5.33073 16.7209C5.33073 15.9539 5.95256 15.332 6.71962 15.332H6.9974C7.45763 15.332 7.83073 14.9589 7.83073 14.4987C7.83073 14.0385 7.45763 13.6654 6.9974 13.6654H6.71962C5.03208 13.6654 3.66406 15.0334 3.66406 16.7209C3.66406 17.7948 4.53462 18.6654 5.60851 18.6654H6.9974C7.45763 18.6654 7.83073 18.2923 7.83073 17.832C7.83073 17.3718 7.45763 16.9987 6.9974 16.9987H5.60851C5.45509 16.9987 5.33073 16.8743 5.33073 16.7209Z" fill="#95969C"/>
<path fill-rule="evenodd" clip-rule="evenodd" d="M14.4974 5.33203C12.6564 5.33203 11.1641 6.82442 11.1641 8.66536C11.1641 10.5063 12.6564 11.9987 14.4974 11.9987C16.3383 11.9987 17.8307 10.5063 17.8307 8.66536C17.8307 6.82442 16.3383 5.33203 14.4974 5.33203ZM12.8307 8.66536C12.8307 7.74489 13.5769 6.9987 14.4974 6.9987C15.4179 6.9987 16.1641 7.74489 16.1641 8.66536C16.1641 9.58584 15.4179 10.332 14.4974 10.332C13.5769 10.332 12.8307 9.58584 12.8307 8.66536Z" fill="#95969C"/>
<path fill-rule="evenodd" clip-rule="evenodd" d="M11.7196 13.6654C10.0321 13.6654 8.66406 15.0334 8.66406 16.7209C8.66406 17.7948 9.53462 18.6654 10.6085 18.6654H18.3863C19.4602 18.6654 20.3307 17.7948 20.3307 16.7209C20.3307 15.0334 18.9627 13.6654 17.2752 13.6654H11.7196ZM10.3307 16.7209C10.3307 15.9539 10.9526 15.332 11.7196 15.332H17.2752C18.0422 15.332 18.6641 15.9539 18.6641 16.7209C18.6641 16.8743 18.5397 16.9987 18.3863 16.9987H10.6085C10.4551 16.9987 10.3307 16.8743 10.3307 16.7209Z" fill="#95969C"/>
</svg>
