<svg width="356" height="410" viewBox="0 0 356 410" fill="none" xmlns="http://www.w3.org/2000/svg">
<path d="M355.424 104.078C355.424 102.83 354.758 101.677 353.678 101.054L289.223 63.842C288.142 63.2182 286.811 63.2182 285.731 63.8421L250.901 83.954C248.572 85.2983 245.662 83.6181 245.662 80.9297V40.7052C245.662 39.4574 244.996 38.3045 243.916 37.6807L179.455 0.468964C178.375 -0.154806 177.043 -0.154739 175.963 0.46914L111.508 37.6863C110.427 38.3102 109.762 39.463 109.762 40.7106V80.9296C109.762 83.6181 106.851 85.2983 104.523 83.9539L69.6935 63.8422C68.6129 63.2182 67.2815 63.2182 66.2009 63.8421L1.74599 101.059C0.665558 101.683 0 102.836 0 104.084V178.507C0 179.754 0.665541 180.907 1.74595 181.531L36.5771 201.644C38.9051 202.988 38.9051 206.348 36.5771 207.692L1.74595 227.805C0.665542 228.429 0 229.582 0 230.829V305.253C0 306.5 0.66556 307.653 1.74599 308.277L66.2009 345.494C67.2815 346.118 68.6129 346.118 69.6935 345.494L104.523 325.382C106.851 324.038 109.762 325.718 109.762 328.406V368.625C109.762 369.873 110.427 371.026 111.508 371.65L175.963 408.867C177.043 409.491 178.375 409.491 179.455 408.867L243.916 371.65C244.996 371.026 245.662 369.873 245.662 368.625V328.406C245.662 325.718 248.572 324.038 250.901 325.382L285.73 345.494C286.811 346.118 288.142 346.118 289.223 345.494L353.678 308.277C354.758 307.653 355.424 306.5 355.424 305.253V230.829C355.424 229.582 354.758 228.429 353.678 227.805L318.847 207.692C316.519 206.348 316.519 202.988 318.847 201.644L353.678 181.531C354.758 180.907 355.424 179.754 355.424 178.507L355.424 104.078Z" fill="url(#paint0_linear_40013207_18703)" fill-opacity="0.06"/>
<path d="M176.463 1.33496C177.234 0.88976 178.184 0.889883 178.955 1.33496L243.416 38.5469C244.187 38.9921 244.662 39.8147 244.662 40.7051V80.9297C244.662 84.3878 248.406 86.5492 251.4 84.8203L286.23 64.708C287.002 64.2628 287.952 64.2629 288.723 64.708L353.178 101.92C353.949 102.365 354.424 103.188 354.424 104.078V178.507C354.424 179.397 353.949 180.22 353.178 180.665L318.347 200.777C315.352 202.506 315.352 206.829 318.347 208.559L353.178 228.671C353.949 229.116 354.424 229.939 354.424 230.829V305.253C354.424 306.143 353.949 306.966 353.178 307.411L288.723 344.628C288 345.045 287.12 345.071 286.377 344.706L286.23 344.628L251.4 324.517C248.406 322.787 244.662 324.948 244.662 328.406V368.625C244.662 369.515 244.187 370.339 243.416 370.784L178.955 408.001C178.184 408.446 177.234 408.446 176.463 408.001L112.008 370.784C111.237 370.339 110.762 369.515 110.762 368.625V328.406C110.762 324.948 107.018 322.787 104.023 324.517L69.1934 344.628C68.4223 345.073 67.4723 345.073 66.7012 344.628L2.24609 307.411C1.47515 306.966 1.00012 306.143 1 305.253V230.829L1.00586 230.663C1.0609 229.837 1.52327 229.088 2.24609 228.671L37.0771 208.559C40.0717 206.829 40.0717 202.506 37.0771 200.777L2.24609 180.665C1.47506 180.22 1 179.397 1 178.507V104.084C1 103.194 1.47504 102.37 2.24609 101.925L66.7012 64.708C67.4723 64.2629 68.4223 64.2628 69.1934 64.708L104.023 84.8203C107.018 86.5493 110.762 84.3878 110.762 80.9297V40.7109C110.762 39.8207 111.237 38.998 112.008 38.5527L176.463 1.33496Z" stroke="url(#paint1_linear_40013207_18703)" stroke-opacity="0.2" stroke-width="2"/>
<defs>
<linearGradient id="paint0_linear_40013207_18703" x1="177.712" y1="-0.539063" x2="177.712" y2="409.875" gradientUnits="userSpaceOnUse">
<stop stop-color="white"/>
<stop offset="1" stop-color="white" stop-opacity="0.2"/>
</linearGradient>
<linearGradient id="paint1_linear_40013207_18703" x1="177.712" y1="-713.218" x2="177.712" y2="781.466" gradientUnits="userSpaceOnUse">
<stop stop-color="white"/>
<stop offset="0.716291" stop-color="white" stop-opacity="0"/>
</linearGradient>
</defs>
</svg>
