<svg width="32" height="32" viewBox="0 0 32 32" fill="none" xmlns="http://www.w3.org/2000/svg">
<rect width="32" height="32" rx="6" fill="white" fill-opacity="0.16"/>
<path d="M19.9284 15.6364C19.9284 16.5682 19.758 17.3693 19.4171 18.0398C19.0762 18.7074 18.6088 19.2216 18.0151 19.5824C17.4242 19.9403 16.7523 20.1193 15.9995 20.1193C15.2438 20.1193 14.5691 19.9403 13.9753 19.5824C13.3844 19.2216 12.9185 18.706 12.5776 18.0355C12.2367 17.3651 12.0662 16.5653 12.0662 15.6364C12.0662 14.7045 12.2367 13.9048 12.5776 13.2372C12.9185 12.5668 13.3844 12.0526 13.9753 11.6946C14.5691 11.3338 15.2438 11.1534 15.9995 11.1534C16.7523 11.1534 17.4242 11.3338 18.0151 11.6946C18.6088 12.0526 19.0762 12.5668 19.4171 13.2372C19.758 13.9048 19.9284 14.7045 19.9284 15.6364ZM18.6245 15.6364C18.6245 14.9261 18.5094 14.3281 18.2793 13.8423C18.052 13.3537 17.7395 12.9844 17.3418 12.7344C16.9469 12.4815 16.4995 12.3551 15.9995 12.3551C15.4966 12.3551 15.0478 12.4815 14.6529 12.7344C14.258 12.9844 13.9455 13.3537 13.7154 13.8423C13.4881 14.3281 13.3745 14.9261 13.3745 15.6364C13.3745 16.3466 13.4881 16.946 13.7154 17.4347C13.9455 17.9205 14.258 18.2898 14.6529 18.5426C15.0478 18.7926 15.4966 18.9176 15.9995 18.9176C16.4995 18.9176 16.9469 18.7926 17.3418 18.5426C17.7395 18.2898 18.052 17.9205 18.2793 17.4347C18.5094 16.946 18.6245 16.3466 18.6245 15.6364Z" fill="white"/>
</svg>
